<?xml version="1.0" encoding="UTF-8" standalone="no"?>
<!DOCTYPE svg PUBLIC "-//W3C//DTD SVG 1.1//EN"
 "http://www.w3.org/Graphics/SVG/1.1/DTD/svg11.dtd">
<!-- Generated by graphviz version 14.1.2 (20260126.1125)
 -->
<!-- Title: geodex Pages: 1 -->
<svg width="912pt" height="754pt"
 viewBox="0.00 0.00 912.00 754.00" xmlns="http://www.w3.org/2000/svg" xmlns:xlink="http://www.w3.org/1999/xlink">
<g id="graph0" class="graph" transform="scale(1 1) rotate(0) translate(21.6 732.85)">
<title>geodex</title>
<!-- policies -->
<g id="node1" class="node">
<title>policies</title>
<polygon fill="#f7fbfe" stroke="none" points="0,-576 0,-711.25 869.25,-711.25 869.25,-576 0,-576"/>
<text xml:space="preserve" text-anchor="start" x="404.62" y="-685.95" font-family="Helvetica,sans-Serif" font-weight="bold" font-size="14.00" fill="#1a1a1a">Policies</text>
<polygon fill="#e7f0fa" stroke="none" points="11,-587 11,-669 292.5,-669 292.5,-587 11,-587"/>
<polygon fill="none" stroke="#2980b9" points="11,-587 11,-669 292.5,-669 292.5,-587 11,-587"/>
<text xml:space="preserve" text-anchor="start" x="127.75" y="-648.65" font-family="Helvetica,sans-Serif" font-size="13.00" fill="#1a1a1a">Metrics</text>
<text xml:space="preserve" text-anchor="start" x="19" y="-632.15" font-family="Helvetica,sans-Serif" font-size="13.00" fill="#1a1a1a">Identity, ConstantSPD, SE2LeftInvariant,</text>
<text xml:space="preserve" text-anchor="start" x="47.88" y="-615.65" font-family="Helvetica,sans-Serif" font-size="13.00" fill="#1a1a1a">KineticEnergy, Jacobi, Pullback,</text>
<text xml:space="preserve" text-anchor="start" x="29.12" y="-599.15" font-family="Helvetica,sans-Serif" font-size="13.00" fill="#1a1a1a">SDFConformal (clearance), Weighted</text>
<polygon fill="#e7f0fa" stroke="none" points="302.5,-587 302.5,-669 554.75,-669 554.75,-587 302.5,-587"/>
<polygon fill="none" stroke="#2980b9" points="302.5,-587 302.5,-669 554.75,-669 554.75,-587 302.5,-587"/>
<text xml:space="preserve" text-anchor="start" x="391.12" y="-632.15" font-family="Helvetica,sans-Serif" font-size="13.00" fill="#1a1a1a">Retractions</text>
<text xml:space="preserve" text-anchor="start" x="310.5" y="-615.65" font-family="Helvetica,sans-Serif" font-size="13.00" fill="#1a1a1a">exponential maps, projection, Euler</text>
<polygon fill="#e7f0fa" stroke="none" points="564.75,-587 564.75,-669 858.25,-669 858.25,-587 564.75,-587"/>
<polygon fill="none" stroke="#2980b9" points="564.75,-587 564.75,-669 858.25,-669 858.25,-587 564.75,-587"/>
<text xml:space="preserve" text-anchor="start" x="680.75" y="-632.15" font-family="Helvetica,sans-Serif" font-size="13.00" fill="#1a1a1a">Samplers</text>
<text xml:space="preserve" text-anchor="start" x="572.75" y="-615.65" font-family="Helvetica,sans-Serif" font-size="13.00" fill="#1a1a1a">ScrambledHalton, Halton, PseudoRandom</text>
<polygon fill="none" stroke="#2980b9" points="0,-576 0,-711.25 869.25,-711.25 869.25,-576 0,-576"/>
</g>
<!-- manifolds -->
<g id="node2" class="node">
<title>manifolds</title>
<polygon fill="#f7fbfe" stroke="none" points="251.5,-429.5 251.5,-531.75 617.75,-531.75 617.75,-429.5 251.5,-429.5"/>
<text xml:space="preserve" text-anchor="start" x="396.38" y="-506.45" font-family="Helvetica,sans-Serif" font-weight="bold" font-size="14.00" fill="#1a1a1a">Manifolds</text>
<polygon fill="#e7f0fa" stroke="none" points="262.5,-440.5 262.5,-489.5 446.5,-489.5 446.5,-440.5 262.5,-440.5"/>
<polygon fill="none" stroke="#2980b9" points="262.5,-440.5 262.5,-489.5 446.5,-489.5 446.5,-440.5 262.5,-440.5"/>
<text xml:space="preserve" text-anchor="start" x="270.5" y="-469.15" font-family="Helvetica,sans-Serif" font-size="13.00" fill="#1a1a1a">Sphere, Euclidean, Torus,</text>
<text xml:space="preserve" text-anchor="start" x="289.25" y="-452.65" font-family="Helvetica,sans-Serif" font-size="13.00" fill="#1a1a1a">SO2, SO3, SE2, SE3</text>
<polygon fill="#e7f0fa" stroke="none" points="456.5,-440.5 456.5,-489.5 606.75,-489.5 606.75,-440.5 456.5,-440.5"/>
<polygon fill="none" stroke="#2980b9" points="456.5,-440.5 456.5,-489.5 606.75,-489.5 606.75,-440.5 456.5,-440.5"/>
<text xml:space="preserve" text-anchor="start" x="464.5" y="-469.15" font-family="Helvetica,sans-Serif" font-size="13.00" fill="#1a1a1a">ConfigurationSpace,</text>
<text xml:space="preserve" text-anchor="start" x="478.38" y="-452.65" font-family="Helvetica,sans-Serif" font-size="13.00" fill="#1a1a1a">ProductManifold</text>
<polygon fill="none" stroke="#2980b9" points="251.5,-429.5 251.5,-531.75 617.75,-531.75 617.75,-429.5 251.5,-429.5"/>
</g>
<!-- policies&#45;&gt;manifolds -->
<g id="edge1" class="edge">
<title>policies&#45;&gt;manifolds</title>
<path fill="none" stroke="#2980b9" stroke-width="1.1" d="M434.62,-576.21C434.62,-564.57 434.62,-552.53 434.62,-541.09"/>
<polygon fill="#2980b9" stroke="#2980b9" stroke-width="1.1" points="437.43,-541.31 434.63,-533.31 431.83,-541.31 437.43,-541.31"/>
<text xml:space="preserve" text-anchor="middle" x="460.5" y="-549.6" font-family="Helvetica,sans-Serif" font-size="12.00" fill="#34495e"> &#160;policies</text>
</g>
<!-- algorithms -->
<g id="node3" class="node">
<title>algorithms</title>
<polygon fill="#f7fbfe" stroke="none" points="173.25,-283 173.25,-385.25 696,-385.25 696,-283 173.25,-283"/>
<text xml:space="preserve" text-anchor="start" x="392.25" y="-359.95" font-family="Helvetica,sans-Serif" font-weight="bold" font-size="14.00" fill="#1a1a1a">Algorithms</text>
<polygon fill="#e7f0fa" stroke="none" points="184.25,-294 184.25,-343 326.25,-343 326.25,-294 184.25,-294"/>
<polygon fill="none" stroke="#2980b9" points="184.25,-294 184.25,-343 326.25,-343 326.25,-294 184.25,-294"/>
<text xml:space="preserve" text-anchor="start" x="192.25" y="-322.65" font-family="Helvetica,sans-Serif" font-size="13.00" fill="#1a1a1a">distance_midpoint,</text>
<text xml:space="preserve" text-anchor="start" x="195.62" y="-306.15" font-family="Helvetica,sans-Serif" font-size="13.00" fill="#1a1a1a">discrete_geodesic</text>
<polygon fill="#e7f0fa" stroke="none" points="336.25,-294 336.25,-343 438.5,-343 438.5,-294 336.25,-294"/>
<polygon fill="none" stroke="#2980b9" points="336.25,-294 336.25,-343 438.5,-343 438.5,-294 336.25,-294"/>
<text xml:space="preserve" text-anchor="start" x="344.25" y="-314.4" font-family="Helvetica,sans-Serif" font-size="13.00" fill="#1a1a1a">smooth_path</text>
<polygon fill="#e7f0fa" stroke="none" points="448.5,-294 448.5,-343 685,-343 685,-294 448.5,-294"/>
<polygon fill="none" stroke="#2980b9" points="448.5,-294 448.5,-343 685,-343 685,-294 448.5,-294"/>
<text xml:space="preserve" text-anchor="start" x="456.5" y="-314.4" font-family="Helvetica,sans-Serif" font-size="13.00" fill="#1a1a1a">precompute_matrix_lower_bound</text>
<polygon fill="none" stroke="#2980b9" points="173.25,-283 173.25,-385.25 696,-385.25 696,-283 173.25,-283"/>
</g>
<!-- manifolds&#45;&gt;algorithms -->
<g id="edge2" class="edge">
<title>manifolds&#45;&gt;algorithms</title>
<path fill="none" stroke="#2980b9" stroke-width="1.1" d="M434.62,-429.9C434.62,-418.43 434.62,-406.12 434.62,-394.3"/>
<polygon fill="#2980b9" stroke="#2980b9" stroke-width="1.1" points="437.43,-394.61 434.63,-386.61 431.83,-394.61 437.43,-394.61"/>
<text xml:space="preserve" text-anchor="middle" x="499.5" y="-403.1" font-family="Helvetica,sans-Serif" font-size="12.00" fill="#34495e"> &#160;RiemannianManifold</text>
</g>
<!-- planning -->
<g id="node4" class="node">
<title>planning</title>
<polygon fill="#f7fbfe" stroke="none" points="36.5,-133.25 36.5,-252 832.75,-252 832.75,-133.25 36.5,-133.25"/>
<text xml:space="preserve" text-anchor="start" x="400.5" y="-226.7" font-family="Helvetica,sans-Serif" font-weight="bold" font-size="14.00" fill="#1a1a1a">Planning</text>
<polygon fill="#e7f0fa" stroke="none" points="47.5,-144.25 47.5,-209.75 102.5,-209.75 102.5,-144.25 47.5,-144.25"/>
<polygon fill="none" stroke="#2980b9" points="47.5,-144.25 47.5,-209.75 102.5,-209.75 102.5,-144.25 47.5,-144.25"/>
<text xml:space="preserve" text-anchor="start" x="55.5" y="-172.9" font-family="Helvetica,sans-Serif" font-size="13.00" fill="#1a1a1a">plan()</text>
<polygon fill="#e7f0fa" stroke="none" points="112.5,-144.25 112.5,-209.75 364,-209.75 364,-144.25 112.5,-144.25"/>
<polygon fill="none" stroke="#2980b9" points="112.5,-144.25 112.5,-209.75 364,-209.75 364,-144.25 112.5,-144.25"/>
<text xml:space="preserve" text-anchor="start" x="206.38" y="-181.15" font-family="Helvetica,sans-Serif" font-size="13.00" fill="#1a1a1a">heuristics</text>
<text xml:space="preserve" text-anchor="start" x="120.5" y="-164.65" font-family="Helvetica,sans-Serif" font-size="13.00" fill="#1a1a1a">Zero, Euclidean, MatrixLowerBound</text>
<polygon fill="#e7f0fa" stroke="none" points="374,-144.25 374,-209.75 597,-209.75 597,-144.25 374,-144.25"/>
<polygon fill="none" stroke="#2980b9" points="374,-144.25 374,-209.75 597,-209.75 597,-144.25 374,-144.25"/>
<text xml:space="preserve" text-anchor="start" x="458.5" y="-181.15" font-family="Helvetica,sans-Serif" font-size="13.00" fill="#1a1a1a">collision</text>
<text xml:space="preserve" text-anchor="start" x="382" y="-164.65" font-family="Helvetica,sans-Serif" font-size="13.00" fill="#1a1a1a">SDFs, footprints, distance grids</text>
<polygon fill="#e7f0fa" stroke="none" points="607,-144.25 607,-209.75 821.75,-209.75 821.75,-144.25 607,-144.25"/>
<polygon fill="none" stroke="#2980b9" points="607,-144.25 607,-209.75 821.75,-209.75 821.75,-144.25 607,-144.25"/>
<text xml:space="preserve" text-anchor="start" x="693.38" y="-189.4" font-family="Helvetica,sans-Serif" font-size="13.00" fill="#1a1a1a">robots</text>
<text xml:space="preserve" text-anchor="start" x="615" y="-172.9" font-family="Helvetica,sans-Serif" font-size="13.00" fill="#1a1a1a">CRBA mass matrices, bounds,</text>
<text xml:space="preserve" text-anchor="start" x="674.62" y="-156.4" font-family="Helvetica,sans-Serif" font-size="13.00" fill="#1a1a1a">joint spaces</text>
<polygon fill="none" stroke="#2980b9" points="36.5,-133.25 36.5,-252 832.75,-252 832.75,-133.25 36.5,-133.25"/>
</g>
<!-- algorithms&#45;&gt;planning -->
<g id="edge3" class="edge">
<title>algorithms&#45;&gt;planning</title>
<path fill="none" stroke="#2980b9" stroke-width="1.1" d="M434.62,-283.16C434.62,-276.01 434.62,-268.56 434.62,-261.15"/>
<polygon fill="#2980b9" stroke="#2980b9" stroke-width="1.1" points="437.43,-261.46 434.63,-253.46 431.83,-261.46 437.43,-261.46"/>
</g>
<!-- integrations -->
<g id="node5" class="node">
<title>integrations</title>
<polygon fill="#f7fbfe" stroke="none" points="84.12,0 84.12,-102.25 785.12,-102.25 785.12,0 84.12,0"/>
<text xml:space="preserve" text-anchor="start" x="386.25" y="-76.95" font-family="Helvetica,sans-Serif" font-weight="bold" font-size="14.00" fill="#1a1a1a">Integrations</text>
<polygon fill="#e7f0fa" stroke="none" points="95.12,-11 95.12,-60 243.88,-60 243.88,-11 95.12,-11"/>
<polygon fill="none" stroke="#2980b9" points="95.12,-11 95.12,-60 243.88,-60 243.88,-11 95.12,-11"/>
<text xml:space="preserve" text-anchor="start" x="136.12" y="-39.65" font-family="Helvetica,sans-Serif" font-size="13.00" fill="#1a1a1a">OMPL fork</text>
<text xml:space="preserve" text-anchor="start" x="103.12" y="-23.15" font-family="Helvetica,sans-Serif" font-size="13.00" fill="#1a1a1a">state space, G&#45;RRT*</text>
<polygon fill="#e7f0fa" stroke="none" points="253.88,-11 253.88,-60 425.12,-60 425.12,-11 253.88,-11"/>
<polygon fill="none" stroke="#2980b9" points="253.88,-11 253.88,-60 425.12,-60 425.12,-11 253.88,-11"/>
<text xml:space="preserve" text-anchor="start" x="321.5" y="-39.65" font-family="Helvetica,sans-Serif" font-size="13.00" fill="#1a1a1a">VAMP</text>
<text xml:space="preserve" text-anchor="start" x="261.88" y="-23.15" font-family="Helvetica,sans-Serif" font-size="13.00" fill="#1a1a1a">SIMD collision checking</text>
<polygon fill="#e7f0fa" stroke="none" points="435.12,-11 435.12,-60 623.62,-60 623.62,-11 435.12,-11"/>
<polygon fill="none" stroke="#2980b9" points="435.12,-11 435.12,-60 623.62,-60 623.62,-11 435.12,-11"/>
<text xml:space="preserve" text-anchor="start" x="497.88" y="-39.65" font-family="Helvetica,sans-Serif" font-size="13.00" fill="#1a1a1a">Pinocchio</text>
<text xml:space="preserve" text-anchor="start" x="443.12" y="-23.15" font-family="Helvetica,sans-Serif" font-size="13.00" fill="#1a1a1a">mass matrices from URDF</text>
<polygon fill="#e7f0fa" stroke="none" points="633.62,-11 633.62,-60 774.12,-60 774.12,-11 633.62,-11"/>
<polygon fill="none" stroke="#2980b9" points="633.62,-11 633.62,-60 774.12,-60 774.12,-11 633.62,-11"/>
<text xml:space="preserve" text-anchor="start" x="641.62" y="-39.65" font-family="Helvetica,sans-Serif" font-size="13.00" fill="#1a1a1a">Nav2 and MoveIt 2</text>
<text xml:space="preserve" text-anchor="start" x="652.88" y="-23.15" font-family="Helvetica,sans-Serif" font-size="13.00" fill="#1a1a1a">planner plugins</text>
<polygon fill="none" stroke="#2980b9" points="84.12,0 84.12,-102.25 785.12,-102.25 785.12,0 84.12,0"/>
</g>
<!-- planning&#45;&gt;integrations -->
<g id="edge4" class="edge">
<title>planning&#45;&gt;integrations</title>
<path fill="none" stroke="#2980b9" stroke-width="1.1" d="M434.62,-133.27C434.62,-125.92 434.62,-118.4 434.62,-111.04"/>
<polygon fill="#2980b9" stroke="#2980b9" stroke-width="1.1" points="437.43,-111.5 434.63,-103.5 431.83,-111.5 437.43,-111.5"/>
</g>
</g>
</svg>
