<?xml version="1.0" encoding="UTF-8" standalone="no"?>
<svg
   width="454.84pt"
   height="291.54501pt"
   viewBox="0 0 454.84 291.545"
   version="1.1"
   id="svg110"
   sodipodi:docname="se2_inflation.svg"
   inkscape:version="1.4 (e7c3feb1, 2024-10-09)"
   xmlns:inkscape="http://www.inkscape.org/namespaces/inkscape"
   xmlns:sodipodi="http://sodipodi.sourceforge.net/DTD/sodipodi-0.dtd"
   xmlns:xlink="http://www.w3.org/1999/xlink"
   xmlns="http://www.w3.org/2000/svg"
   xmlns:svg="http://www.w3.org/2000/svg"
   xmlns:rdf="http://www.w3.org/1999/02/22-rdf-syntax-ns#"
   xmlns:cc="http://creativecommons.org/ns#"
   xmlns:dc="http://purl.org/dc/elements/1.1/">
  <sodipodi:namedview
     id="namedview110"
     pagecolor="#505050"
     bordercolor="#eeeeee"
     borderopacity="1"
     inkscape:showpageshadow="0"
     inkscape:pageopacity="0"
     inkscape:pagecheckerboard="0"
     inkscape:deskcolor="#505050"
     inkscape:document-units="pt"
     inkscape:zoom="0.7773109"
     inkscape:cx="343.4919"
     inkscape:cy="241.85947"
     inkscape:window-width="1472"
     inkscape:window-height="891"
     inkscape:window-x="0"
     inkscape:window-y="37"
     inkscape:window-maximized="1"
     inkscape:current-layer="svg110" />
  <metadata
     id="metadata1">
    <rdf:RDF>
      <cc:Work>
        <dc:type
           rdf:resource="http://purl.org/dc/dcmitype/StillImage" />
        <dc:date>2026-04-13T08:26:50.656081</dc:date>
        <dc:format>image/svg+xml</dc:format>
        <dc:creator>
          <cc:Agent>
            <dc:title>Matplotlib v3.10.8, https://matplotlib.org/</dc:title>
          </cc:Agent>
        </dc:creator>
      </cc:Work>
    </rdf:RDF>
  </metadata>
  <defs
     id="defs1">
    <style
       type="text/css"
       id="style1">*{stroke-linejoin: round; stroke-linecap: butt}</style>
  </defs>
  <g
     id="line2d_1" />
  <g
     id="line2d_2" />
  <g
     id="g111">
    <g
       id="patch_2">
      <path
         d="M 132.384,229.9386 H 320.16 q 6.2592,0 6.2592,-6.2592 V 111.0138 q 0,-6.2592 -6.2592,-6.2592 H 132.384 q -6.2592,0 -6.2592,6.2592 v 112.6656 q 0,6.2592 6.2592,6.2592 z"
         clip-path="url(#p760e943a22)"
         style="opacity:0.7;fill:#fa8072;stroke:#8b0000;stroke-width:2;stroke-linejoin:miter"
         id="path2" />
    </g>
    <g
       id="patch_3">
      <path
         d="m 101.088,261.2346 h 250.368 q 6.2592,0 6.2592,-6.2592 V 79.7178 q 0,-6.2592 -6.2592,-6.2592 H 101.088 q -6.2592,0 -6.2592,6.2592 v 175.2576 q 0,6.2592 6.2592,6.2592 z"
         clip-path="url(#p760e943a22)"
         style="fill:none;stroke:#000080;stroke-width:2;stroke-linejoin:miter;stroke-dasharray:7.4, 3.2;stroke-dashoffset:0"
         id="path3" />
    </g>
    <g
       id="patch_4">
      <path
         d="m 357.7152,198.6426 c 8.2998,0 16.26077,-3.29754 22.12961,-9.16639 5.86885,-5.86884 9.16639,-13.82981 9.16639,-22.12961 0,-8.2998 -3.29754,-16.26077 -9.16639,-22.12961 -5.86884,-5.86885 -13.82981,-9.16639 -22.12961,-9.16639 -8.2998,0 -16.26077,3.29754 -22.12961,9.16639 -5.86885,5.86884 -9.16639,13.82981 -9.16639,22.12961 0,8.2998 3.29754,16.26077 9.16639,22.12961 5.86884,5.86885 13.82981,9.16639 22.12961,9.16639 z"
         clip-path="url(#p760e943a22)"
         style="opacity:0.25;fill:#228b22;stroke:#228b22;stroke-width:1.5;stroke-linejoin:miter"
         id="path4" />
    </g>
    <g
       id="patch_5">
      <path
         d="m 313.9008,123.5322 c 8.2998,0 16.26077,-3.29754 22.12961,-9.16639 5.86885,-5.86884 9.16639,-13.82981 9.16639,-22.12961 0,-8.299796 -3.29754,-16.260772 -9.16639,-22.129614 C 330.16157,64.237744 322.2006,60.9402 313.9008,60.9402 c -8.2998,0 -16.26077,3.297544 -22.12961,9.166386 -5.86885,5.868842 -9.16639,13.829818 -9.16639,22.129614 0,8.2998 3.29754,16.26077 9.16639,22.12961 5.86884,5.86885 13.82981,9.16639 22.12961,9.16639 z"
         clip-path="url(#p760e943a22)"
         style="opacity:0.25;fill:#ff6347;stroke:#ff6347;stroke-width:1.5;stroke-linejoin:miter"
         id="path5" />
    </g>
    <g
       id="text_1">
      <!-- Obstacle -->
      <g
         style="fill:#8b0000"
         transform="matrix(0.13,0,0,-0.13,200.62239,170.65449)"
         id="g12">
        <defs
           id="defs5">
          <path
             id="Helvetica-4f"
             d="m 2469,4716 q 1215,0 1800,-782 456,-609 456,-1559 0,-1028 -522,-1709 -612,-800 -1747,-800 -1059,0 -1665,700 -541,675 -541,1706 0,931 463,1594 593,850 1756,850 z m 62,-4294 q 822,0 1189,589 368,589 368,1355 0,809 -424,1303 -423,494 -1158,494 -712,0 -1162,-490 Q 894,3184 894,2231 894,1469 1280,945 1666,422 2531,422 Z m -43,4294 z"
             transform="scale(0.015625)" />
          <path
             id="Helvetica-62"
             d="M 369,4606 H 916 V 2941 q 184,240 440,366 257,127 557,127 625,0 1014,-430 389,-429 389,-1266 0,-794 -385,-1319 -384,-525 -1065,-525 -382,0 -644,184 -156,110 -334,350 V 0 H 369 Z M 1831,391 q 457,0 683,362 227,363 227,956 0,529 -227,875 -226,347 -667,347 -384,0 -674,-284 -289,-284 -289,-938 0,-471 119,-765 222,-553 828,-553 z"
             transform="scale(0.015625)" />
          <path
             id="Helvetica-73"
             d="m 747,1050 q 25,-281 141,-431 212,-272 737,-272 313,0 550,136 238,136 238,420 0,216 -191,328 -122,69 -481,160 l -447,112 q -428,106 -631,238 -363,228 -363,631 0,475 342,768 342,294 921,294 756,0 1090,-443 210,-282 203,-607 h -531 q -16,191 -134,347 -194,222 -672,222 -319,0 -483,-122 -164,-122 -164,-322 0,-218 216,-350 125,-78 368,-137 l 372,-91 q 606,-147 813,-284 328,-216 328,-678 0,-447 -339,-772 -339,-325 -1033,-325 -747,0 -1058,339 -311,339 -333,839 z m 831,2378 z"
             transform="scale(0.015625)" />
          <path
             id="Helvetica-74"
             d="m 525,4281 h 569 v -934 h 534 V 2888 H 1094 V 703 q 0,-175 119,-234 65,-35 218,-35 41,0 88,2 47,2 109,8 V 0 Q 1531,-28 1426,-40 1322,-53 1200,-53 806,-53 665,148 525,350 525,672 V 2888 H 72 v 459 h 453 z"
             transform="scale(0.015625)" />
          <path
             id="Helvetica-61"
             d="m 844,891 q 0,-244 178,-385 178,-140 422,-140 297,0 575,137 469,228 469,747 v 453 q -104,-65 -267,-109 -162,-44 -318,-63 l -340,-43 Q 1256,1447 1103,1359 844,1213 844,891 Z m 1362,1137 q 194,25 260,163 37,75 37,215 0,288 -205,417 -204,130 -585,130 -441,0 -625,-237 Q 984,2584 953,2325 H 428 q 16,619 402,861 386,242 895,242 591,0 959,-225 366,-225 366,-700 V 575 q 0,-87 36,-141 36,-53 152,-53 37,0 84,5 47,5 100,14 V -16 q -131,-37 -200,-46 -69,-10 -188,-10 -290,0 -421,206 -69,110 -97,310 -172,-225 -494,-391 -322,-166 -709,-166 -466,0 -762,283 -295,283 -295,708 0,466 291,722 291,256 762,316 z m -465,1400 z"
             transform="scale(0.015625)" />
          <path
             id="Helvetica-63"
             d="m 1703,3444 q 566,0 920,-275 355,-275 427,-947 h -547 q -50,309 -228,514 -178,205 -572,205 -537,0 -769,-525 -150,-341 -150,-841 0,-503 212,-847 213,-344 670,-344 350,0 554,214 205,215 283,586 h 547 Q 2956,519 2581,211 2206,-97 1622,-97 966,-97 575,383 184,863 184,1581 q 0,882 428,1372 429,491 1091,491 z m -87,-16 z"
             transform="scale(0.015625)" />
          <path
             id="Helvetica-6c"
             d="M 428,4591 H 991 V 0 H 428 Z"
             transform="scale(0.015625)" />
          <path
             id="Helvetica-65"
             d="m 1806,3422 q 357,0 691,-167 334,-167 509,-433 169,-253 225,-591 50,-231 50,-737 H 828 q 16,-510 241,-818 225,-307 697,-307 440,0 703,290 150,169 212,391 h 553 Q 3213,866 3089,639 2966,413 2813,269 2556,19 2178,-69 q -203,-50 -459,-50 -625,0 -1060,455 -434,455 -434,1273 0,807 437,1310 438,503 1144,503 z m 897,-1481 q -34,365 -159,584 -231,406 -772,406 -388,0 -651,-280 -262,-279 -277,-710 z m -950,1487 z"
             transform="scale(0.015625)" />
        </defs>
        <use
           xlink:href="#Helvetica-4f"
           id="use5" />
        <use
           xlink:href="#Helvetica-62"
           transform="translate(77.783203)"
           id="use6" />
        <use
           xlink:href="#Helvetica-73"
           transform="translate(133.39844)"
           id="use7" />
        <use
           xlink:href="#Helvetica-74"
           transform="translate(183.39844)"
           id="use8" />
        <use
           xlink:href="#Helvetica-61"
           transform="translate(211.18164)"
           id="use9" />
        <use
           xlink:href="#Helvetica-63"
           transform="translate(266.79687)"
           id="use10" />
        <use
           xlink:href="#Helvetica-6c"
           transform="translate(316.79687)"
           id="use11" />
        <use
           xlink:href="#Helvetica-65"
           transform="translate(339.01367)"
           id="use12" />
      </g>
    </g>
    <g
       id="text_2">
      <!-- Safe -->
      <g
         style="fill:#228b22"
         transform="matrix(0.12,0,0,-0.12,345.37301,126.6618)"
         id="g16">
        <defs
           id="defs12">
          <path
             id="Helvetica-53"
             d="m 894,1481 q 22,-390 184,-634 310,-456 1091,-456 350,0 637,100 557,193 557,693 0,375 -235,535 -237,156 -744,272 l -621,140 q -610,138 -863,303 -437,288 -437,860 0,619 428,1015 428,397 1212,397 722,0 1226,-349 505,-348 505,-1113 h -584 q -47,369 -200,565 -284,360 -966,360 -550,0 -791,-232 -240,-231 -240,-537 0,-337 281,-494 185,-100 835,-250 l 644,-147 q 465,-106 718,-290 438,-322 438,-935 0,-762 -555,-1090 -555,-328 -1289,-328 -856,0 -1341,437 -484,435 -475,1178 z m 1256,3235 z"
             transform="scale(0.015625)" />
          <path
             id="Helvetica-66"
             d="m 553,3856 q 13,350 122,513 197,287 759,287 54,0 110,-3 56,-3 128,-9 v -513 q -88,7 -127,8 -39,2 -73,2 -256,0 -306,-133 -50,-133 -50,-677 h 556 V 2888 H 1109 V 0 H 553 V 2888 H 88 v 443 h 465 z"
             transform="scale(0.015625)" />
        </defs>
        <use
           xlink:href="#Helvetica-53"
           id="use13" />
        <use
           xlink:href="#Helvetica-61"
           transform="translate(66.699219)"
           id="use14" />
        <use
           xlink:href="#Helvetica-66"
           transform="translate(122.31445)"
           id="use15" />
        <use
           xlink:href="#Helvetica-65"
           transform="translate(150.09766)"
           id="use16" />
      </g>
    </g>
    <g
       id="text_3">
      <!-- Collision -->
      <g
         style="fill:#ff6347"
         transform="matrix(0.12,0,0,-0.12,291.22549,51.5514)"
         id="g25">
        <defs
           id="defs16">
          <path
             id="Helvetica-43"
             d="m 2422,4716 q 872,0 1353,-460 481,-459 534,-1043 h -606 q -103,443 -411,702 -308,260 -864,260 -678,0 -1095,-477 -417,-476 -417,-1460 0,-807 376,-1309 377,-501 1124,-501 687,0 1047,528 190,278 284,732 h 606 Q 4272,963 3816,472 3269,-119 2341,-119 q -800,0 -1344,485 -716,640 -716,1978 0,1015 538,1665 581,707 1603,707 z m -125,0 z"
             transform="scale(0.015625)" />
          <path
             id="Helvetica-6f"
             d="m 1741,363 q 559,0 767,423 208,423 208,942 0,469 -150,763 -238,462 -819,462 -516,0 -750,-394 -234,-393 -234,-950 0,-534 234,-890 234,-356 744,-356 z m 22,3081 q 646,0 1093,-432 447,-431 447,-1268 0,-810 -394,-1338 -393,-528 -1221,-528 -691,0 -1098,467 -406,468 -406,1255 0,844 428,1344 429,500 1151,500 z m -19,-16 z"
             transform="scale(0.015625)" />
          <path
             id="Helvetica-69"
             d="M 413,3331 H 984 V 0 H 413 Z m 0,1260 H 984 V 3953 H 413 Z"
             transform="scale(0.015625)" />
          <path
             id="Helvetica-6e"
             d="m 413,3347 h 534 v -475 q 237,294 503,422 266,128 591,128 712,0 962,-497 138,-272 138,-778 V 0 h -572 v 2109 q 0,307 -91,494 -150,313 -544,313 -200,0 -328,-41 -231,-69 -406,-275 -141,-166 -183,-343 -42,-176 -42,-504 V 0 H 413 Z m 1321,81 z"
             transform="scale(0.015625)" />
        </defs>
        <use
           xlink:href="#Helvetica-43"
           id="use17" />
        <use
           xlink:href="#Helvetica-6f"
           transform="translate(72.216797)"
           id="use18" />
        <use
           xlink:href="#Helvetica-6c"
           transform="translate(127.83203)"
           id="use19" />
        <use
           xlink:href="#Helvetica-6c"
           transform="translate(150.04883)"
           id="use20" />
        <use
           xlink:href="#Helvetica-69"
           transform="translate(172.26562)"
           id="use21" />
        <use
           xlink:href="#Helvetica-73"
           transform="translate(194.48242)"
           id="use22" />
        <use
           xlink:href="#Helvetica-69"
           transform="translate(244.48242)"
           id="use23" />
        <use
           xlink:href="#Helvetica-6f"
           transform="translate(266.69922)"
           id="use24" />
        <use
           xlink:href="#Helvetica-6e"
           transform="translate(322.31445)"
           id="use25" />
      </g>
    </g>
    <g
       id="patch_6"
       transform="translate(6,1.5)">
      <path
         d="m 323.83507,267.4938 q 11.97233,0 23.94466,0"
         style="fill:none;stroke:#000080;stroke-width:1.5;stroke-linecap:round"
         id="path25" />
      <path
         d="m 329.43507,270.2938 -5.6,-2.8 5.6,-2.8"
         style="fill:none;stroke:#000080;stroke-width:1.5;stroke-linecap:round"
         id="path26" />
      <path
         d="m 342.17973,264.6938 5.6,2.8 -5.6,2.8"
         style="fill:none;stroke:#000080;stroke-width:1.5;stroke-linecap:round"
         id="path27" />
    </g>
    <g
       id="text_4"
       transform="translate(6,1.5)">
      <!-- $r$ -->
      <g
         style="fill:#000080"
         transform="matrix(0.14,0,0,-0.14,333.428,283.1418)"
         id="g27">
        <defs
           id="defs27">
          <path
             id="STIXGeneral-Italic-1d633"
             d="m 2810,2861 -116,-448 h -128 q -19,45 -96,70 -76,26 -128,26 -275,0 -557,-269 -281,-269 -505,-742 L 909,0 H 403 l 698,2816 486,154 51,-32 -89,-410 q 409,435 921,435 237,0 340,-102 z"
             transform="scale(0.015625)" />
        </defs>
        <use
           xlink:href="#STIXGeneral-Italic-1d633"
           transform="translate(0,0.59375)"
           id="use27" />
      </g>
    </g>
    <g
       id="text_5">
      <!-- Inflating the obstacle boundary by robot radius -->
      <g
         transform="matrix(0.14,0,0,-0.14,98.339063,17.385)"
         id="g74">
        <defs
           id="defs28">
          <path
             id="Helvetica-49"
             d="m 628,4591 h 628 V 0 H 628 Z"
             transform="scale(0.015625)" />
          <path
             id="Helvetica-67"
             d="m 1594,3406 q 394,0 687,-193 160,-110 325,-319 v 422 h 519 V 272 q 0,-638 -187,-1006 -350,-682 -1322,-682 -541,0 -910,243 -368,242 -412,757 h 572 q 40,-225 162,-347 191,-187 600,-187 647,0 847,456 119,269 109,960 Q 2416,209 2178,84 1941,-41 1550,-41 1006,-41 598,345 191,731 191,1622 q 0,841 411,1312 411,472 992,472 z M 2606,1688 q 0,621 -256,921 -256,300 -653,300 -594,0 -813,-556 -115,-297 -115,-778 0,-566 229,-861 230,-295 618,-295 606,0 853,547 137,309 137,722 z m -947,1740 z"
             transform="scale(0.015625)" />
          <path
             id="Helvetica-20"
             transform="scale(0.015625)"
             d="" />
          <path
             id="Helvetica-68"
             d="M 413,4606 H 975 V 2894 q 200,253 359,356 272,178 679,178 728,0 987,-509 141,-278 141,-772 V 0 h -578 v 2109 q 0,369 -94,541 -153,275 -575,275 -350,0 -635,-241 Q 975,2444 975,1775 V 0 H 413 Z"
             transform="scale(0.015625)" />
          <path
             id="Helvetica-75"
             d="M 975,3347 V 1125 q 0,-256 81,-419 150,-300 560,-300 587,0 800,525 115,282 115,772 v 1644 h 563 V 0 h -531 l 6,494 Q 2459,303 2297,172 1975,-91 1516,-91 800,-91 541,388 400,644 400,1072 v 2275 z m 772,81 z"
             transform="scale(0.015625)" />
          <path
             id="Helvetica-64"
             d="m 769,1634 q 0,-537 228,-900 228,-362 731,-362 391,0 642,336 252,336 252,964 0,634 -260,939 -259,305 -640,305 -425,0 -689,-325 -264,-325 -264,-957 z m 847,1772 q 384,0 643,-162 150,-94 341,-328 v 1690 h 541 V 0 H 2634 V 466 Q 2438,156 2169,18 1900,-119 1553,-119 994,-119 584,351 175,822 175,1603 q 0,731 373,1267 374,536 1068,536 z"
             transform="scale(0.015625)" />
          <path
             id="Helvetica-72"
             d="m 428,3347 h 535 v -578 q 65,169 321,411 257,242 591,242 16,0 53,-3 38,-3 128,-13 v -593 q -50,9 -92,12 -42,3 -92,3 -425,0 -653,-274 Q 991,2281 991,1925 V 0 H 428 Z"
             transform="scale(0.015625)" />
          <path
             id="Helvetica-79"
             d="m 2503,3347 h 622 Q 3006,3025 2597,1878 2291,1016 2084,472 1597,-809 1397,-1090 q -200,-282 -688,-282 -118,0 -182,10 -64,9 -158,34 v 512 q 147,-40 212,-49 66,-10 116,-10 156,0 229,52 74,51 124,126 16,25 112,257 97,231 141,343 L 66,3347 H 703 L 1600,622 Z m -906,81 z"
             transform="scale(0.015625)" />
        </defs>
        <use
           xlink:href="#Helvetica-49"
           id="use28" />
        <use
           xlink:href="#Helvetica-6e"
           transform="translate(27.783203)"
           id="use29" />
        <use
           xlink:href="#Helvetica-66"
           transform="translate(83.398438)"
           id="use30" />
        <use
           xlink:href="#Helvetica-6c"
           transform="translate(111.18164)"
           id="use31" />
        <use
           xlink:href="#Helvetica-61"
           transform="translate(133.39844)"
           id="use32" />
        <use
           xlink:href="#Helvetica-74"
           transform="translate(189.01367)"
           id="use33" />
        <use
           xlink:href="#Helvetica-69"
           transform="translate(216.79687)"
           id="use34" />
        <use
           xlink:href="#Helvetica-6e"
           transform="translate(239.01367)"
           id="use35" />
        <use
           xlink:href="#Helvetica-67"
           transform="translate(294.62891)"
           id="use36" />
        <use
           xlink:href="#Helvetica-20"
           transform="translate(350.24414)"
           id="use37" />
        <use
           xlink:href="#Helvetica-74"
           transform="translate(378.02734)"
           id="use38" />
        <use
           xlink:href="#Helvetica-68"
           transform="translate(405.81055)"
           id="use39" />
        <use
           xlink:href="#Helvetica-65"
           transform="translate(461.42578)"
           id="use40" />
        <use
           xlink:href="#Helvetica-20"
           transform="translate(517.04102)"
           id="use41" />
        <use
           xlink:href="#Helvetica-6f"
           transform="translate(544.82422)"
           id="use42" />
        <use
           xlink:href="#Helvetica-62"
           transform="translate(600.43945)"
           id="use43" />
        <use
           xlink:href="#Helvetica-73"
           transform="translate(656.05469)"
           id="use44" />
        <use
           xlink:href="#Helvetica-74"
           transform="translate(706.05469)"
           id="use45" />
        <use
           xlink:href="#Helvetica-61"
           transform="translate(733.83789)"
           id="use46" />
        <use
           xlink:href="#Helvetica-63"
           transform="translate(789.45312)"
           id="use47" />
        <use
           xlink:href="#Helvetica-6c"
           transform="translate(839.45312)"
           id="use48" />
        <use
           xlink:href="#Helvetica-65"
           transform="translate(861.66992)"
           id="use49" />
        <use
           xlink:href="#Helvetica-20"
           transform="translate(917.28516)"
           id="use50" />
        <use
           xlink:href="#Helvetica-62"
           transform="translate(945.06836)"
           id="use51" />
        <use
           xlink:href="#Helvetica-6f"
           transform="translate(1000.6836)"
           id="use52" />
        <use
           xlink:href="#Helvetica-75"
           transform="translate(1056.2988)"
           id="use53" />
        <use
           xlink:href="#Helvetica-6e"
           transform="translate(1111.9141)"
           id="use54" />
        <use
           xlink:href="#Helvetica-64"
           transform="translate(1167.5293)"
           id="use55" />
        <use
           xlink:href="#Helvetica-61"
           transform="translate(1223.1445)"
           id="use56" />
        <use
           xlink:href="#Helvetica-72"
           transform="translate(1278.7598)"
           id="use57" />
        <use
           xlink:href="#Helvetica-79"
           transform="translate(1312.0605)"
           id="use58" />
        <use
           xlink:href="#Helvetica-20"
           transform="translate(1362.0605)"
           id="use59" />
        <use
           xlink:href="#Helvetica-62"
           transform="translate(1389.8438)"
           id="use60" />
        <use
           xlink:href="#Helvetica-79"
           transform="translate(1445.459)"
           id="use61" />
        <use
           xlink:href="#Helvetica-20"
           transform="translate(1495.459)"
           id="use62" />
        <use
           xlink:href="#Helvetica-72"
           transform="translate(1523.2422)"
           id="use63" />
        <use
           xlink:href="#Helvetica-6f"
           transform="translate(1556.543)"
           id="use64" />
        <use
           xlink:href="#Helvetica-62"
           transform="translate(1612.1582)"
           id="use65" />
        <use
           xlink:href="#Helvetica-6f"
           transform="translate(1667.7734)"
           id="use66" />
        <use
           xlink:href="#Helvetica-74"
           transform="translate(1723.3887)"
           id="use67" />
        <use
           xlink:href="#Helvetica-20"
           transform="translate(1751.1719)"
           id="use68" />
        <use
           xlink:href="#Helvetica-72"
           transform="translate(1778.9551)"
           id="use69" />
        <use
           xlink:href="#Helvetica-61"
           transform="translate(1812.2559)"
           id="use70" />
        <use
           xlink:href="#Helvetica-64"
           transform="translate(1867.8711)"
           id="use71" />
        <use
           xlink:href="#Helvetica-69"
           transform="translate(1923.4863)"
           id="use72" />
        <use
           xlink:href="#Helvetica-75"
           transform="translate(1945.7031)"
           id="use73" />
        <use
           xlink:href="#Helvetica-73"
           transform="translate(2001.3184)"
           id="use74" />
      </g>
    </g>
    <g
       id="legend_1">
      <g
         id="patch_7">
        <path
           d="m 14.9,64.085 h 122.02266 q 2.2,0 2.2,-2.2 v -30.8 q 0,-2.2 -2.2,-2.2 H 14.9 q -2.2,0 -2.2,2.2 v 30.8 q 0,2.2 2.2,2.2 z"
           style="opacity:0.9;fill:#ffffff;stroke:#cccccc;stroke-linejoin:miter"
           id="path74" />
      </g>
      <g
         id="line2d_3">
        <path
           d="m 17.1,37.540625 h 11 11"
           style="fill:none;stroke:#8b0000;stroke-width:2;stroke-linecap:square"
           id="path75" />
      </g>
      <g
         id="text_6">
        <!-- Original boundary -->
        <g
           transform="matrix(0.11,0,0,-0.11,47.9,41.390625)"
           id="g91">
          <use
             xlink:href="#Helvetica-4f"
             id="use75" />
          <use
             xlink:href="#Helvetica-72"
             transform="translate(77.783203)"
             id="use76" />
          <use
             xlink:href="#Helvetica-69"
             transform="translate(111.08398)"
             id="use77" />
          <use
             xlink:href="#Helvetica-67"
             transform="translate(133.30078)"
             id="use78" />
          <use
             xlink:href="#Helvetica-69"
             transform="translate(188.91602)"
             id="use79" />
          <use
             xlink:href="#Helvetica-6e"
             transform="translate(211.13281)"
             id="use80" />
          <use
             xlink:href="#Helvetica-61"
             transform="translate(266.74805)"
             id="use81" />
          <use
             xlink:href="#Helvetica-6c"
             transform="translate(322.36328)"
             id="use82" />
          <use
             xlink:href="#Helvetica-20"
             transform="translate(344.58008)"
             id="use83" />
          <use
             xlink:href="#Helvetica-62"
             transform="translate(372.36328)"
             id="use84" />
          <use
             xlink:href="#Helvetica-6f"
             transform="translate(427.97852)"
             id="use85" />
          <use
             xlink:href="#Helvetica-75"
             transform="translate(483.59375)"
             id="use86" />
          <use
             xlink:href="#Helvetica-6e"
             transform="translate(539.20898)"
             id="use87" />
          <use
             xlink:href="#Helvetica-64"
             transform="translate(594.82422)"
             id="use88" />
          <use
             xlink:href="#Helvetica-61"
             transform="translate(650.43945)"
             id="use89" />
          <use
             xlink:href="#Helvetica-72"
             transform="translate(706.05469)"
             id="use90" />
          <use
             xlink:href="#Helvetica-79"
             transform="translate(739.35547)"
             id="use91" />
        </g>
      </g>
      <g
         id="line2d_4">
        <path
           d="m 17.1,53.476875 h 11 11"
           style="fill:none;stroke:#000080;stroke-width:2;stroke-dasharray:7.4, 3.2;stroke-dashoffset:0"
           id="path91" />
      </g>
      <g
         id="text_7">
        <!-- Inflated boundary -->
        <g
           transform="matrix(0.11,0,0,-0.11,47.9,57.326875)"
           id="g108">
          <use
             xlink:href="#Helvetica-49"
             id="use92" />
          <use
             xlink:href="#Helvetica-6e"
             transform="translate(27.783203)"
             id="use93" />
          <use
             xlink:href="#Helvetica-66"
             transform="translate(83.398438)"
             id="use94" />
          <use
             xlink:href="#Helvetica-6c"
             transform="translate(111.18164)"
             id="use95" />
          <use
             xlink:href="#Helvetica-61"
             transform="translate(133.39844)"
             id="use96" />
          <use
             xlink:href="#Helvetica-74"
             transform="translate(189.01367)"
             id="use97" />
          <use
             xlink:href="#Helvetica-65"
             transform="translate(216.79687)"
             id="use98" />
          <use
             xlink:href="#Helvetica-64"
             transform="translate(272.41211)"
             id="use99" />
          <use
             xlink:href="#Helvetica-20"
             transform="translate(328.02734)"
             id="use100" />
          <use
             xlink:href="#Helvetica-62"
             transform="translate(355.81055)"
             id="use101" />
          <use
             xlink:href="#Helvetica-6f"
             transform="translate(411.42578)"
             id="use102" />
          <use
             xlink:href="#Helvetica-75"
             transform="translate(467.04102)"
             id="use103" />
          <use
             xlink:href="#Helvetica-6e"
             transform="translate(522.65625)"
             id="use104" />
          <use
             xlink:href="#Helvetica-64"
             transform="translate(578.27148)"
             id="use105" />
          <use
             xlink:href="#Helvetica-61"
             transform="translate(633.88672)"
             id="use106" />
          <use
             xlink:href="#Helvetica-72"
             transform="translate(689.50195)"
             id="use107" />
          <use
             xlink:href="#Helvetica-79"
             transform="translate(722.80273)"
             id="use108" />
        </g>
      </g>
    </g>
    <g
       id="line2d_5">
      <defs
         id="defs108">
        <path
           id="mb0d18c9b47"
           d="M 0,2.5 C 0.663008,2.5 1.29895,2.236584 1.767767,1.767767 2.236584,1.29895 2.5,0.663008 2.5,0 2.5,-0.663008 2.236584,-1.29895 1.767767,-1.767767 1.29895,-2.236584 0.663008,-2.5 0,-2.5 c -0.663008,0 -1.29895,0.263416 -1.767767,0.732233 C -2.236584,-1.29895 -2.5,-0.663008 -2.5,0 c 0,0.663008 0.263416,1.29895 0.732233,1.767767 C -1.29895,2.236584 -0.663008,2.5 0,2.5 Z"
           style="stroke:#228b22" />
      </defs>
      <g
         clip-path="url(#p760e943a22)"
         id="g109">
        <use
           xlink:href="#mb0d18c9b47"
           x="357.71521"
           y="167.3466"
           style="fill:#228b22;stroke:#228b22"
           id="use109" />
      </g>
    </g>
    <g
       id="line2d_6">
      <defs
         id="defs109">
        <path
           id="m690a014232"
           d="M 0,2.5 C 0.663008,2.5 1.29895,2.236584 1.767767,1.767767 2.236584,1.29895 2.5,0.663008 2.5,0 2.5,-0.663008 2.236584,-1.29895 1.767767,-1.767767 1.29895,-2.236584 0.663008,-2.5 0,-2.5 c -0.663008,0 -1.29895,0.263416 -1.767767,0.732233 C -2.236584,-1.29895 -2.5,-0.663008 -2.5,0 c 0,0.663008 0.263416,1.29895 0.732233,1.767767 C -1.29895,2.236584 -0.663008,2.5 0,2.5 Z"
           style="stroke:#ff6347" />
      </defs>
      <g
         clip-path="url(#p760e943a22)"
         id="g110">
        <use
           xlink:href="#m690a014232"
           x="313.90079"
           y="92.236198"
           style="fill:#ff6347;stroke:#ff6347"
           id="use110" />
      </g>
    </g>
  </g>
  <defs
     id="defs110">
    <clipPath
       id="p760e943a22">
      <rect
         x="7.1999998"
         y="23.385"
         width="469.44"
         height="312.95999"
         id="rect110" />
    </clipPath>
  </defs>
</svg>
