<?xml version="1.0" encoding="UTF-8" standalone="no"?>
<svg
   width="776.16pt"
   height="274.385625pt"
   viewBox="0 0 776.16 274.385625"
   version="1.1"
   id="svg86"
   sodipodi:docname="se2_poses_and_footprints.svg"
   inkscape:version="1.4 (e7c3feb1, 2024-10-09)"
   xmlns:inkscape="http://www.inkscape.org/namespaces/inkscape"
   xmlns:sodipodi="http://sodipodi.sourceforge.net/DTD/sodipodi-0.dtd"
   xmlns:xlink="http://www.w3.org/1999/xlink"
   xmlns="http://www.w3.org/2000/svg"
   xmlns:svg="http://www.w3.org/2000/svg"
   xmlns:rdf="http://www.w3.org/1999/02/22-rdf-syntax-ns#"
   xmlns:cc="http://creativecommons.org/ns#"
   xmlns:dc="http://purl.org/dc/elements/1.1/">
  <sodipodi:namedview
     id="namedview86"
     pagecolor="#505050"
     bordercolor="#eeeeee"
     borderopacity="1"
     inkscape:showpageshadow="0"
     inkscape:pageopacity="0"
     inkscape:pagecheckerboard="0"
     inkscape:deskcolor="#505050"
     inkscape:document-units="pt"
     inkscape:zoom="0.75326624"
     inkscape:cx="292.06141"
     inkscape:cy="139.39295"
     inkscape:window-width="1472"
     inkscape:window-height="891"
     inkscape:window-x="0"
     inkscape:window-y="37"
     inkscape:window-maximized="1"
     inkscape:current-layer="text_3" />
  <metadata
     id="metadata1">
    <rdf:RDF>
      <cc:Work>
        <dc:type
           rdf:resource="http://purl.org/dc/dcmitype/StillImage" />
        <dc:date>2026-04-13T08:26:50.580712</dc:date>
        <dc:format>image/svg+xml</dc:format>
        <dc:creator>
          <cc:Agent>
            <dc:title>Matplotlib v3.10.8, https://matplotlib.org/</dc:title>
          </cc:Agent>
        </dc:creator>
      </cc:Work>
    </rdf:RDF>
  </metadata>
  <defs
     id="defs1">
    <style
       type="text/css"
       id="style1">*{stroke-linejoin: round; stroke-linecap: butt}</style>
    <defs
       id="defs10">
      <path
         id="Helvetica-48"
         d="m 503,4591 h 628 V 2694 h 2388 v 1897 h 628 V 0 H 3519 V 2147 H 1131 V 0 H 503 Z"
         transform="scale(0.015625)" />
      <path
         id="Helvetica-6f"
         d="m 1741,363 q 559,0 767,423 208,423 208,942 0,469 -150,763 -238,462 -819,462 -516,0 -750,-394 -234,-393 -234,-950 0,-534 234,-890 234,-356 744,-356 z m 22,3081 q 646,0 1093,-432 447,-431 447,-1268 0,-810 -394,-1338 -393,-528 -1221,-528 -691,0 -1098,467 -406,468 -406,1255 0,844 428,1344 429,500 1151,500 z m -19,-16 z"
         transform="scale(0.015625)" />
      <path
         id="Helvetica-6c"
         d="M 428,4591 H 991 V 0 H 428 Z"
         transform="scale(0.015625)" />
      <path
         id="Helvetica-6e"
         d="m 413,3347 h 534 v -475 q 237,294 503,422 266,128 591,128 712,0 962,-497 138,-272 138,-778 V 0 h -572 v 2109 q 0,307 -91,494 -150,313 -544,313 -200,0 -328,-41 -231,-69 -406,-275 -141,-166 -183,-343 -42,-176 -42,-504 V 0 H 413 Z m 1321,81 z"
         transform="scale(0.015625)" />
      <path
         id="Helvetica-6d"
         d="m 413,3347 h 556 v -475 q 200,247 362,359 278,191 632,191 400,0 643,-197 138,-112 250,-331 188,269 441,398 253,130 569,130 675,0 918,-488 132,-262 132,-706 V 0 h -585 v 2325 q 0,334 -167,459 -167,125 -408,125 -331,0 -570,-222 -239,-221 -239,-740 V 0 h -572 v 2184 q 0,341 -81,497 -128,235 -478,235 -319,0 -580,-247 Q 975,2422 975,1775 V 0 H 413 Z"
         transform="scale(0.015625)" />
      <path
         id="Helvetica-69"
         d="M 413,3331 H 984 V 0 H 413 Z m 0,1260 H 984 V 3953 H 413 Z"
         transform="scale(0.015625)" />
      <path
         id="Helvetica-63"
         d="m 1703,3444 q 566,0 920,-275 355,-275 427,-947 h -547 q -50,309 -228,514 -178,205 -572,205 -537,0 -769,-525 -150,-341 -150,-841 0,-503 212,-847 213,-344 670,-344 350,0 554,214 205,215 283,586 h 547 Q 2956,519 2581,211 2206,-97 1622,-97 966,-97 575,383 184,863 184,1581 q 0,882 428,1372 429,491 1091,491 z m -87,-16 z"
         transform="scale(0.015625)" />
      <path
         id="Helvetica-20"
         transform="scale(0.015625)"
         d="" />
      <path
         id="Helvetica-28"
         d="m 1894,4666 q -491,-953 -638,-1403 -222,-685 -222,-1582 0,-906 254,-1656 156,-463 615,-1331 h -378 q -456,712 -566,909 -109,197 -237,535 -175,462 -244,987 -34,272 -34,519 0,925 290,1647 185,459 769,1375 z"
         transform="scale(0.015625)" />
      <path
         id="Helvetica-72"
         d="m 428,3347 h 535 v -578 q 65,169 321,411 257,242 591,242 16,0 53,-3 38,-3 128,-13 v -593 q -50,9 -92,12 -42,3 -92,3 -425,0 -653,-274 Q 991,2281 991,1925 V 0 H 428 Z"
         transform="scale(0.015625)" />
      <path
         id="Helvetica-75"
         d="M 975,3347 V 1125 q 0,-256 81,-419 150,-300 560,-300 587,0 800,525 115,282 115,772 v 1644 h 563 V 0 h -531 l 6,494 Q 2459,303 2297,172 1975,-91 1516,-91 800,-91 541,388 400,644 400,1072 v 2275 z m 772,81 z"
         transform="scale(0.015625)" />
      <path
         id="Helvetica-61"
         d="m 844,891 q 0,-244 178,-385 178,-140 422,-140 297,0 575,137 469,228 469,747 v 453 q -104,-65 -267,-109 -162,-44 -318,-63 l -340,-43 Q 1256,1447 1103,1359 844,1213 844,891 Z m 1362,1137 q 194,25 260,163 37,75 37,215 0,288 -205,417 -204,130 -585,130 -441,0 -625,-237 Q 984,2584 953,2325 H 428 q 16,619 402,861 386,242 895,242 591,0 959,-225 366,-225 366,-700 V 575 q 0,-87 36,-141 36,-53 152,-53 37,0 84,5 47,5 100,14 V -16 q -131,-37 -200,-46 -69,-10 -188,-10 -290,0 -421,206 -69,110 -97,310 -172,-225 -494,-391 -322,-166 -709,-166 -466,0 -762,283 -295,283 -295,708 0,466 291,722 291,256 762,316 z m -465,1400 z"
         transform="scale(0.015625)" />
      <path
         id="Helvetica-29"
         d="m 222,-1306 q 497,968 641,1412 218,672 218,1575 0,903 -253,1653 -156,463 -615,1332 h 378 q 481,-769 582,-949 102,-179 221,-495 150,-391 214,-772 64,-381 64,-734 0,-925 -294,-1650 -184,-466 -765,-1372 z"
         transform="scale(0.015625)" />
    </defs>
  </defs>
  <g
     id="patch_2">
    <path
       d="m 129.12,192.15793 c 12.43598,0 24.3643,-4.94087 33.15787,-13.73444 8.79357,-8.79357 13.73444,-20.72188 13.73444,-33.15787 0,-12.43598 -4.94087,-24.36429 -13.73444,-33.15786 -8.79357,-8.79357 -20.72189,-13.734443 -33.15787,-13.734443 -12.43598,0 -24.3643,4.940873 -33.157869,13.734443 -8.793569,8.79357 -13.734439,20.72188 -13.734439,33.15786 0,12.43599 4.94087,24.3643 13.734439,33.15787 8.793569,8.79357 20.721889,13.73444 33.157869,13.73444 z"
       clip-path="url(#p9298389964)"
       style="opacity:0.15;fill:#4169e1;stroke:#4169e1;stroke-width:1.5;stroke-linejoin:miter"
       id="path2" />
  </g>
  <g
     id="line2d_1">
    <path
       d="m 161.94461,145.26562 -0.003,-0.44067 -0.009,-0.4406 -0.0148,-0.44044 -0.0207,-0.4402 -0.0266,-0.43988 -0.0325,-0.43949 -0.0384,-0.43901 -0.0443,-0.43845 -0.0502,-0.43783 -0.0561,-0.4371 -0.0619,-0.43632 -0.0678,-0.43544 -0.0736,-0.4345 -0.0794,-0.43347 -0.0853,-0.43236 -0.091,-0.43118 -0.0968,-0.42992 -0.10259,-0.42858 -0.10833,-0.42716 -0.11406,-0.42568 -0.11976,-0.4241 -0.12545,-0.42245 -0.1311,-0.42074 -0.13675,-0.41893 -0.14235,-0.41706 -0.14794,-0.41512 -0.1535,-0.41308 -0.15903,-0.411 -0.16454,-0.40882 -0.17001,-0.40657 -0.17545,-0.40425 -0.18087,-0.40187 -0.18624,-0.39939 -0.19159,-0.39686 -0.19689,-0.39426 -0.20218,-0.39157 -0.20741,-0.38883 -0.21261,-0.38601 -0.21778,-0.38311"
       clip-path="url(#p9298389964)"
       style="fill:none;stroke:#808080;stroke-dasharray:3.7, 1.6;stroke-dashoffset:0"
       id="path3" />
  </g>
  <g
     id="text_1">
    <!-- $\theta$ -->
    <g
       style="fill:#808080"
       transform="matrix(0.13,0,0,-0.13,171.03449,136.43689)"
       id="g3">
      <defs
         id="defs3">
        <path
           id="STIXNonUnicode-Italic-e1df"
           d="M 3270,3136 Q 3270,2432 3017,1696 2765,960 2304,448 1843,-64 1318,-64 858,-64 637,272 416,608 416,1178 q 0,396 137,924 138,528 378,1043 240,516 640,871 400,355 855,355 435,0 639,-343 205,-342 205,-892 z M 1107,2387 h 1575 q 83,397 83,717 0,813 -461,813 -352,0 -679,-455 -326,-454 -518,-1075 z M 2573,1933 H 998 q -76,-378 -76,-698 0,-845 505,-845 352,0 649,432 298,432 497,1111 z"
           transform="scale(0.015625)" />
      </defs>
      <use
         xlink:href="#STIXNonUnicode-Italic-e1df"
         transform="translate(0,0.703125)"
         id="use3" />
    </g>
  </g>
  <g
     id="text_2">
    <!-- $(x, y, \theta)$ -->
    <g
       style="fill:#000080"
       transform="matrix(0.13,0,0,-0.13,109.88,224.98255)"
       id="g10">
      <defs
         id="defs4">
        <path
           id="STIXGeneral-Regular-28"
           d="m 1946,-1030 -77,-103 Q 1126,-710 716,32 307,774 307,1613 q 0,1773 1581,2713 l 58,-102 Q 1293,3667 1075,3126 858,2586 858,1632 858,685 1082,96 q 224,-589 864,-1126 z"
           transform="scale(0.015625)" />
        <path
           id="STIXGeneral-Italic-1d639"
           d="M 3482,2899 2202,1510 2893,0 H 2291 L 1786,1120 794,0 H 192 L 1600,1530 986,2899 h 601 l 435,-966 858,966 z"
           transform="scale(0.015625)" />
        <path
           id="STIXGeneral-Regular-2c"
           d="m 531,-902 -64,121 q 531,359 531,685 0,83 -89,83 -26,0 -87,-12 -60,-13 -99,-13 -371,0 -371,326 0,166 105,265 106,100 279,100 218,0 365,-157 147,-157 147,-400 0,-294 -195,-569 -195,-276 -522,-429 z"
           transform="scale(0.015625)" />
        <path
           id="STIXGeneral-Italic-1d63a"
           d="M 3616,2899 1690,-282 q -346,-569 -657,-834 -310,-266 -719,-266 -308,0 -436,153 L -6,-768 H 96 q 166,-154 346,-154 204,0 441,247 237,246 455,637 12,25 57,98 45,74 64,113 -89,518 -288,1516 -198,999 -237,1210 h 551 L 1862,832 3072,2899 Z"
           transform="scale(0.015625)" />
        <path
           id="STIXGeneral-Regular-29"
           d="m 186,4224 76,102 q 730,-435 1146,-1178 416,-742 416,-1567 0,-1747 -1581,-2714 l -57,103 q 659,544 873,1084 215,541 215,1508 0,972 -215,1558 -214,586 -873,1104 z"
           transform="scale(0.015625)" />
      </defs>
      <use
         xlink:href="#STIXGeneral-Regular-28"
         transform="translate(0,0.703125)"
         id="use4" />
      <use
         xlink:href="#STIXGeneral-Italic-1d639"
         transform="translate(33.299988,0.703125)"
         id="use5" />
      <use
         xlink:href="#STIXGeneral-Regular-2c"
         transform="translate(81.499985,0.703125)"
         id="use6" />
      <use
         xlink:href="#STIXGeneral-Italic-1d63a"
         transform="translate(121.61997,0.703125)"
         id="use7" />
      <use
         xlink:href="#STIXGeneral-Regular-2c"
         transform="translate(170.01996,0.703125)"
         id="use8" />
      <use
         xlink:href="#STIXNonUnicode-Italic-e1df"
         transform="translate(210.13994,0.703125)"
         id="use9" />
      <use
         xlink:href="#STIXGeneral-Regular-29"
         transform="translate(261.93993,0.703125)"
         id="use10" />
    </g>
  </g>
  <g
     id="text_3">
    <!-- Holonomic (circular) -->
    <g
       id="g86"
       transform="translate(28.776154)">
      <use
         xlink:href="#Helvetica-48"
         id="use11"
         transform="matrix(0.14,0,0,-0.14,66.888906,17.345625)" />
      <use
         xlink:href="#Helvetica-6f"
         transform="matrix(0.14,0,0,-0.14,76.999258,17.345625)"
         id="use12" />
      <use
         xlink:href="#Helvetica-6c"
         transform="matrix(0.14,0,0,-0.14,84.78539,17.345625)"
         id="use13" />
      <use
         xlink:href="#Helvetica-6f"
         transform="matrix(0.14,0,0,-0.14,87.895742,17.345625)"
         id="use14" />
      <use
         xlink:href="#Helvetica-6e"
         transform="matrix(0.14,0,0,-0.14,95.681874,17.345625)"
         id="use15" />
      <use
         xlink:href="#Helvetica-6f"
         transform="matrix(0.14,0,0,-0.14,103.46801,17.345625)"
         id="use16" />
      <use
         xlink:href="#Helvetica-6d"
         transform="matrix(0.14,0,0,-0.14,111.25414,17.345625)"
         id="use17" />
      <use
         xlink:href="#Helvetica-69"
         transform="matrix(0.14,0,0,-0.14,122.91625,17.345625)"
         id="use18" />
      <use
         xlink:href="#Helvetica-63"
         transform="matrix(0.14,0,0,-0.14,126.0266,17.345625)"
         id="use19" />
    </g>
    <use
       xlink:href="#Helvetica-20"
       transform="matrix(0.14,0,0,-0.14,133.0266,17.345625)"
       id="use20" />
  </g>
  <g
     id="patch_3">
    <path
       d="m 181.10071,115.25455 -1.84202,4.31229 -1.38333,-2.39599 -48.73191,28.13538 -0.0469,-0.0812 48.73192,-28.13539 -1.38332,-2.39598 z"
       clip-path="url(#p9298389964)"
       style="fill:#d62728;stroke:#d62728;stroke-width:1.5;stroke-linejoin:miter"
       id="path30" />
  </g>
  <g
     id="patch_4">
    <path
       d="m 99.108923,93.284915 4.312287,1.842025 -2.39598,1.383323 28.13538,48.731917 -0.0812,0.0469 -28.13538,-48.731914 -2.39599,1.383323 z"
       clip-path="url(#p9298389964)"
       style="fill:#2ca02c;stroke:#2ca02c;stroke-width:1.5;stroke-linejoin:miter"
       id="path31" />
  </g>
  <g
     id="text_4">
    <!-- $x$ -->
    <g
       style="fill:#d62728"
       transform="matrix(0.12,0,0,-0.12,184.6583,114.5566)"
       id="g32">
      <use
         xlink:href="#STIXGeneral-Italic-1d639"
         transform="translate(0,0.703125)"
         id="use32" />
    </g>
  </g>
  <g
     id="text_5">
    <!-- $y$ -->
    <g
       style="fill:#2ca02c"
       transform="matrix(0.12,0,0,-0.12,92.417538,89.702014)"
       id="g33">
      <use
         xlink:href="#STIXGeneral-Italic-1d63a"
         transform="translate(0,0.703125)"
         id="use33" />
    </g>
  </g>
  <g
     id="line2d_2">
    <defs
       id="defs33">
      <path
         id="mc01cc36096"
         d="M 0,3 C 0.795609,3 1.55874,2.683901 2.12132,2.12132 2.683901,1.55874 3,0.795609 3,0 3,-0.795609 2.683901,-1.55874 2.12132,-2.12132 1.55874,-2.683901 0.795609,-3 0,-3 -0.795609,-3 -1.55874,-2.683901 -2.12132,-2.12132 -2.683901,-1.55874 -3,-0.795609 -3,0 -3,0.795609 -2.683901,1.55874 -2.12132,2.12132 -1.55874,2.683901 -0.795609,3 0,3 Z"
         style="stroke:#000080" />
    </defs>
    <g
       clip-path="url(#p9298389964)"
       id="g34">
      <use
         xlink:href="#mc01cc36096"
         x="129.12"
         y="145.26562"
         style="fill:#000080;stroke:#000080"
         id="use34" />
    </g>
  </g>
  <g
     id="patch_6">
    <path
       d="M 374.81685,204.94979 447.76416,132.00248 401.34315,85.581461 328.39584,158.52877 Z"
       clip-path="url(#p1229362103)"
       style="opacity:0.15;fill:#4169e1;stroke:#4169e1;stroke-width:1.5;stroke-linejoin:miter"
       id="path34" />
  </g>
  <g
     id="line2d_3">
    <path
       d="m 420.90461,145.26562 -0.007,-0.66099 -0.02,-0.66072 -0.0333,-0.66019 -0.0466,-0.65938 -0.0598,-0.65831 -0.0731,-0.65698 -0.0863,-0.65537 -0.0995,-0.65349 -0.1126,-0.65137 -0.12569,-0.64896 -0.13874,-0.6463 -0.15172,-0.64338 -0.16465,-0.64019 -0.1775,-0.63675 -0.1903,-0.63304 -0.203,-0.62908 -0.21562,-0.62487 -0.22817,-0.62039 -0.24062,-0.61568 -0.25296,-0.61071 -0.26521,-0.60549 -0.27735,-0.60002 -0.28937,-0.59432 -0.30129,-0.58837 -0.31307,-0.58219 -0.32473,-0.57576 -0.33626,-0.56911 -0.34765,-0.56222 -0.3589,-0.55511 -0.37001,-0.54776 -0.38097,-0.54021 -0.39176,-0.53242 -0.40241,-0.52443 -0.41288,-0.51621 -0.4232,-0.5078 -0.43333,-0.49917 -0.4433,-0.49035 -0.45309,-0.48132 -0.46268,-0.47209"
       clip-path="url(#p1229362103)"
       style="fill:none;stroke:#808080;stroke-dasharray:3.7, 1.6;stroke-dashoffset:0"
       id="path35" />
  </g>
  <g
     id="text_6">
    <!-- $\theta$ -->
    <g
       style="fill:#808080"
       transform="matrix(0.13,0,0,-0.13,428.02284,130.62861)"
       id="g35">
      <use
         xlink:href="#STIXNonUnicode-Italic-e1df"
         transform="translate(0,0.703125)"
         id="use35" />
    </g>
  </g>
  <g
     id="text_7">
    <!-- $(x, y, \theta)$ -->
    <g
       style="fill:#000080"
       transform="matrix(0.13,0,0,-0.13,368.84,224.98255)"
       id="g42">
      <use
         xlink:href="#STIXGeneral-Regular-28"
         transform="translate(0,0.703125)"
         id="use36" />
      <use
         xlink:href="#STIXGeneral-Italic-1d639"
         transform="translate(33.299988,0.703125)"
         id="use37" />
      <use
         xlink:href="#STIXGeneral-Regular-2c"
         transform="translate(81.499985,0.703125)"
         id="use38" />
      <use
         xlink:href="#STIXGeneral-Italic-1d63a"
         transform="translate(121.61997,0.703125)"
         id="use39" />
      <use
         xlink:href="#STIXGeneral-Regular-2c"
         transform="translate(170.01996,0.703125)"
         id="use40" />
      <use
         xlink:href="#STIXNonUnicode-Italic-e1df"
         transform="translate(210.13994,0.703125)"
         id="use41" />
      <use
         xlink:href="#STIXGeneral-Regular-29"
         transform="translate(261.93993,0.703125)"
         id="use42" />
    </g>
  </g>
  <g
     id="text_8">
    <!-- Differential drive -->
    <g
       transform="matrix(0.14,0,0,-0.14,337.50719,17.345625)"
       id="g60">
      <defs
         id="defs42">
        <path
           id="Helvetica-44"
           d="m 2250,531 q 316,0 519,66 362,122 594,469 184,278 265,712 47,260 47,481 0,854 -339,1325 -339,472 -1092,472 H 1141 V 531 Z M 516,4591 h 1859 q 947,0 1469,-672 465,-606 465,-1553 0,-732 -275,-1322 Q 3550,0 2369,0 H 516 Z"
           transform="scale(0.015625)" />
        <path
           id="Helvetica-66"
           d="m 553,3856 q 13,350 122,513 197,287 759,287 54,0 110,-3 56,-3 128,-9 v -513 q -88,7 -127,8 -39,2 -73,2 -256,0 -306,-133 -50,-133 -50,-677 h 556 V 2888 H 1109 V 0 H 553 V 2888 H 88 v 443 h 465 z"
           transform="scale(0.015625)" />
        <path
           id="Helvetica-65"
           d="m 1806,3422 q 357,0 691,-167 334,-167 509,-433 169,-253 225,-591 50,-231 50,-737 H 828 q 16,-510 241,-818 225,-307 697,-307 440,0 703,290 150,169 212,391 h 553 Q 3213,866 3089,639 2966,413 2813,269 2556,19 2178,-69 q -203,-50 -459,-50 -625,0 -1060,455 -434,455 -434,1273 0,807 437,1310 438,503 1144,503 z m 897,-1481 q -34,365 -159,584 -231,406 -772,406 -388,0 -651,-280 -262,-279 -277,-710 z m -950,1487 z"
           transform="scale(0.015625)" />
        <path
           id="Helvetica-74"
           d="m 525,4281 h 569 v -934 h 534 V 2888 H 1094 V 703 q 0,-175 119,-234 65,-35 218,-35 41,0 88,2 47,2 109,8 V 0 Q 1531,-28 1426,-40 1322,-53 1200,-53 806,-53 665,148 525,350 525,672 V 2888 H 72 v 459 h 453 z"
           transform="scale(0.015625)" />
        <path
           id="Helvetica-64"
           d="m 769,1634 q 0,-537 228,-900 228,-362 731,-362 391,0 642,336 252,336 252,964 0,634 -260,939 -259,305 -640,305 -425,0 -689,-325 -264,-325 -264,-957 z m 847,1772 q 384,0 643,-162 150,-94 341,-328 v 1690 h 541 V 0 H 2634 V 466 Q 2438,156 2169,18 1900,-119 1553,-119 994,-119 584,351 175,822 175,1603 q 0,731 373,1267 374,536 1068,536 z"
           transform="scale(0.015625)" />
        <path
           id="Helvetica-76"
           d="m 688,3347 893,-2725 935,2725 h 615 L 1869,0 H 1269 L 34,3347 Z"
           transform="scale(0.015625)" />
      </defs>
      <use
         xlink:href="#Helvetica-44"
         id="use43" />
      <use
         xlink:href="#Helvetica-69"
         transform="translate(72.216797)"
         id="use44" />
      <use
         xlink:href="#Helvetica-66"
         transform="translate(94.433594)"
         id="use45" />
      <use
         xlink:href="#Helvetica-66"
         transform="translate(122.2168)"
         id="use46" />
      <use
         xlink:href="#Helvetica-65"
         transform="translate(150)"
         id="use47" />
      <use
         xlink:href="#Helvetica-72"
         transform="translate(205.61523)"
         id="use48" />
      <use
         xlink:href="#Helvetica-65"
         transform="translate(238.91602)"
         id="use49" />
      <use
         xlink:href="#Helvetica-6e"
         transform="translate(294.53125)"
         id="use50" />
      <use
         xlink:href="#Helvetica-74"
         transform="translate(350.14648)"
         id="use51" />
      <use
         xlink:href="#Helvetica-69"
         transform="translate(377.92969)"
         id="use52" />
      <use
         xlink:href="#Helvetica-61"
         transform="translate(400.14648)"
         id="use53" />
      <use
         xlink:href="#Helvetica-6c"
         transform="translate(455.76172)"
         id="use54" />
      <use
         xlink:href="#Helvetica-20"
         transform="translate(477.97852)"
         id="use55" />
      <use
         xlink:href="#Helvetica-64"
         transform="translate(505.76172)"
         id="use56" />
      <use
         xlink:href="#Helvetica-72"
         transform="translate(561.37695)"
         id="use57" />
      <use
         xlink:href="#Helvetica-69"
         transform="translate(594.67773)"
         id="use58" />
      <use
         xlink:href="#Helvetica-76"
         transform="translate(616.89453)"
         id="use59" />
      <use
         xlink:href="#Helvetica-65"
         transform="translate(666.89453)"
         id="use60" />
    </g>
  </g>
  <g
     id="patch_7">
    <path
       d="m 430.52207,102.82355 -0.66315,4.6421 -1.95632,-1.95631 -39.78944,39.78944 -0.0663,-0.0663 39.78944,-39.78944 -1.95631,-1.95632 z"
       clip-path="url(#p1229362103)"
       style="fill:#d62728;stroke:#d62728;stroke-width:1.5;stroke-linejoin:miter"
       id="path60" />
  </g>
  <g
     id="patch_8">
    <path
       d="m 345.63793,102.82355 4.6421,0.66316 -1.95632,1.95632 39.78945,39.78944 -0.0663,0.0663 -39.78944,-39.78944 -1.95632,1.95631 z"
       clip-path="url(#p1229362103)"
       style="fill:#2ca02c;stroke:#2ca02c;stroke-width:1.5;stroke-linejoin:miter"
       id="path61" />
  </g>
  <g
     id="text_9">
    <!-- $x$ -->
    <g
       style="fill:#d62728"
       transform="matrix(0.12,0,0,-0.12,432.88733,100.57173)"
       id="g62">
      <use
         xlink:href="#STIXGeneral-Italic-1d639"
         transform="translate(0,0.703125)"
         id="use62" />
    </g>
  </g>
  <g
     id="text_10">
    <!-- $y$ -->
    <g
       style="fill:#2ca02c"
       transform="matrix(0.12,0,0,-0.12,337.39267,100.43298)"
       id="g63">
      <use
         xlink:href="#STIXGeneral-Italic-1d63a"
         transform="translate(0,0.703125)"
         id="use63" />
    </g>
  </g>
  <g
     id="line2d_4">
    <g
       clip-path="url(#p1229362103)"
       id="g64">
      <use
         xlink:href="#mc01cc36096"
         x="388.07999"
         y="145.26562"
         style="fill:#000080;stroke:#000080"
         id="use64" />
    </g>
  </g>
  <g
     id="patch_10">
    <path
       d="M 573.82658,150.46874 695.13054,200.71449 720.25342,140.06251 598.94946,89.816762 Z"
       clip-path="url(#pe6b8e70386)"
       style="opacity:0.15;fill:#4169e1;stroke:#4169e1;stroke-width:1.5;stroke-linejoin:miter"
       id="path64" />
  </g>
  <g
     id="line2d_5">
    <path
       d="m 677.36599,157.82706 0.12495,-0.30599 0.12185,-0.30723 0.11876,-0.30845 0.11564,-0.30962 0.11253,-0.31077 0.10938,-0.31189 0.10624,-0.31298 0.10309,-0.31403 0.0999,-0.31505 0.0968,-0.31604 0.0935,-0.317 0.0904,-0.31793 0.0871,-0.31882 0.0839,-0.31968 0.0807,-0.32051 0.0775,-0.32131 0.0742,-0.32207 0.071,-0.3228 0.0677,-0.3235 0.0645,-0.32416 0.0612,-0.3248 0.0579,-0.3254 0.0546,-0.32597 0.0514,-0.3265 0.0481,-0.327 0.0448,-0.32746 0.0415,-0.32791 0.0382,-0.3283 0.0349,-0.32867 0.0316,-0.329 0.0283,-0.32931 0.0249,-0.32958 0.0216,-0.3298 0.0183,-0.33001 0.015,-0.33018 0.0117,-0.33031 0.008,-0.33041 0.005,-0.33048 0.002,-0.33052"
       clip-path="url(#pe6b8e70386)"
       style="fill:none;stroke:#808080;stroke-dasharray:3.7, 1.6;stroke-dashoffset:0"
       id="path65" />
  </g>
  <g
     id="text_11">
    <!-- $\theta$ -->
    <g
       style="fill:#808080"
       transform="matrix(0.13,0,0,-0.13,689.65129,157.72175)"
       id="g65">
      <use
         xlink:href="#STIXNonUnicode-Italic-e1df"
         transform="translate(0,0.703125)"
         id="use65" />
    </g>
  </g>
  <g
     id="text_12">
    <!-- $(x, y, \theta)$ -->
    <g
       style="fill:#000080"
       transform="matrix(0.13,0,0,-0.13,627.8,224.98255)"
       id="g72">
      <use
         xlink:href="#STIXGeneral-Regular-28"
         transform="translate(0,0.703125)"
         id="use66" />
      <use
         xlink:href="#STIXGeneral-Italic-1d639"
         transform="translate(33.299988,0.703125)"
         id="use67" />
      <use
         xlink:href="#STIXGeneral-Regular-2c"
         transform="translate(81.499985,0.703125)"
         id="use68" />
      <use
         xlink:href="#STIXGeneral-Italic-1d63a"
         transform="translate(121.61997,0.703125)"
         id="use69" />
      <use
         xlink:href="#STIXGeneral-Regular-2c"
         transform="translate(170.01996,0.703125)"
         id="use70" />
      <use
         xlink:href="#STIXNonUnicode-Italic-e1df"
         transform="translate(210.13994,0.703125)"
         id="use71" />
      <use
         xlink:href="#STIXGeneral-Regular-29"
         transform="translate(261.93993,0.703125)"
         id="use72" />
    </g>
  </g>
  <g
     id="text_13">
    <!-- Car-like -->
    <g
       transform="matrix(0.14,0,0,-0.14,622.92719,17.345625)"
       id="g80">
      <defs
         id="defs72">
        <path
           id="Helvetica-43"
           d="m 2422,4716 q 872,0 1353,-460 481,-459 534,-1043 h -606 q -103,443 -411,702 -308,260 -864,260 -678,0 -1095,-477 -417,-476 -417,-1460 0,-807 376,-1309 377,-501 1124,-501 687,0 1047,528 190,278 284,732 h 606 Q 4272,963 3816,472 3269,-119 2341,-119 q -800,0 -1344,485 -716,640 -716,1978 0,1015 538,1665 581,707 1603,707 z m -125,0 z"
           transform="scale(0.015625)" />
        <path
           id="Helvetica-2d"
           d="M 266,2072 H 1834 V 1494 H 266 Z"
           transform="scale(0.015625)" />
        <path
           id="Helvetica-6b"
           d="M 400,4591 H 941 V 1925 l 1443,1422 h 719 L 1822,2094 3175,0 H 2456 L 1413,1688 941,1256 V 0 H 400 Z"
           transform="scale(0.015625)" />
      </defs>
      <use
         xlink:href="#Helvetica-43"
         id="use73" />
      <use
         xlink:href="#Helvetica-61"
         transform="translate(72.216797)"
         id="use74" />
      <use
         xlink:href="#Helvetica-72"
         transform="translate(127.83203)"
         id="use75" />
      <use
         xlink:href="#Helvetica-2d"
         transform="translate(161.13281)"
         id="use76" />
      <use
         xlink:href="#Helvetica-6c"
         transform="translate(194.43359)"
         id="use77" />
      <use
         xlink:href="#Helvetica-69"
         transform="translate(216.65039)"
         id="use78" />
      <use
         xlink:href="#Helvetica-6b"
         transform="translate(238.86719)"
         id="use79" />
      <use
         xlink:href="#Helvetica-65"
         transform="translate(288.86719)"
         id="use80" />
    </g>
  </g>
  <g
     id="patch_11"
     transform="matrix(1.317288,0,0,1.317288,-204.98145,-45.76635)"
     style="stroke-width:1.13870315;stroke-dasharray:none">
    <path
       d="m 702.49324,168.23511 -4.54252,1.16378 1.05875,-2.55605 -51.98741,-21.53389 0.0359,-0.0867 51.98741,21.53389 1.05875,-2.55604 z"
       clip-path="url(#pe6b8e70386)"
       style="fill:#d62728;stroke:#d62728;stroke-width:1.13870315;stroke-linejoin:miter;stroke-dasharray:none"
       id="path80" />
  </g>
  <g
     id="patch_12"
     style="stroke-width:1.5;stroke-dasharray:none">
    <path
       d="m 670.00948,89.812386 1.16378,4.542522 -2.55605,-1.05875 -21.53389,51.987412 -0.0866,-0.0359 21.53389,-51.987412 -2.55605,-1.05875 z"
       clip-path="url(#pe6b8e70386)"
       style="fill:#2ca02c;stroke:#2ca02c;stroke-width:1.5;stroke-linejoin:miter;stroke-dasharray:none"
       id="path81" />
  </g>
  <g
     id="text_14"
     transform="translate(16.824593,5.8970464)">
    <!-- $x$ -->
    <g
       style="fill:#d62728"
       transform="matrix(0.12,0,0,-0.12,706.48489,174.15973)"
       id="g82">
      <use
         xlink:href="#STIXGeneral-Italic-1d639"
         transform="translate(0,0.703125)"
         id="use82" />
    </g>
  </g>
  <g
     id="text_15"
     transform="translate(-2.0790859,-2.8399517)">
    <!-- $y$ -->
    <g
       style="fill:#2ca02c"
       transform="matrix(0.12,0,0,-0.12,669.94067,85.795418)"
       id="g83">
      <use
         xlink:href="#STIXGeneral-Italic-1d63a"
         transform="translate(0,0.703125)"
         id="use83" />
    </g>
  </g>
  <g
     id="line2d_6">
    <g
       clip-path="url(#pe6b8e70386)"
       id="g84">
      <use
         xlink:href="#mc01cc36096"
         x="647.03998"
         y="145.26562"
         style="fill:#000080;stroke:#000080"
         id="use84" />
    </g>
  </g>
  <defs
     id="defs86">
    <clipPath
       id="p9298389964">
      <rect
         x="7.2"
         y="23.345625"
         width="243.84"
         height="243.84"
         id="rect84" />
    </clipPath>
    <clipPath
       id="p1229362103">
      <rect
         x="266.16"
         y="23.345625"
         width="243.84"
         height="243.84"
         id="rect85" />
    </clipPath>
    <clipPath
       id="pe6b8e70386">
      <rect
         x="525.12"
         y="23.345625"
         width="243.84"
         height="243.84"
         id="rect86" />
    </clipPath>
  </defs>
</svg>
