<?xml version="1.0" encoding="UTF-8" standalone="no"?>
<svg
   width="676.8pt"
   height="676.8pt"
   viewBox="0 0 676.8 676.8"
   version="1.1"
   id="svg53"
   sodipodi:docname="discrete-geodesic-s2.svg"
   inkscape:version="1.4 (e7c3feb1, 2024-10-09)"
   xmlns:inkscape="http://www.inkscape.org/namespaces/inkscape"
   xmlns:sodipodi="http://sodipodi.sourceforge.net/DTD/sodipodi-0.dtd"
   xmlns:xlink="http://www.w3.org/1999/xlink"
   xmlns="http://www.w3.org/2000/svg"
   xmlns:svg="http://www.w3.org/2000/svg"
   xmlns:rdf="http://www.w3.org/1999/02/22-rdf-syntax-ns#"
   xmlns:cc="http://creativecommons.org/ns#"
   xmlns:dc="http://purl.org/dc/elements/1.1/">
  <sodipodi:namedview
     id="namedview53"
     pagecolor="#505050"
     bordercolor="#eeeeee"
     borderopacity="1"
     inkscape:showpageshadow="0"
     inkscape:pageopacity="0"
     inkscape:pagecheckerboard="0"
     inkscape:deskcolor="#505050"
     inkscape:document-units="pt"
     inkscape:zoom="0.38894895"
     inkscape:cx="518.06285"
     inkscape:cy="452.50154"
     inkscape:window-width="1472"
     inkscape:window-height="891"
     inkscape:window-x="0"
     inkscape:window-y="37"
     inkscape:window-maximized="1"
     inkscape:current-layer="svg53" />
  <metadata
     id="metadata1">
    <rdf:RDF>
      <cc:Work>
        <dc:type
           rdf:resource="http://purl.org/dc/dcmitype/StillImage" />
        <dc:date>2026-04-08T13:34:04.369535</dc:date>
        <dc:format>image/svg+xml</dc:format>
        <dc:creator>
          <cc:Agent>
            <dc:title>Matplotlib v3.10.8, https://matplotlib.org/</dc:title>
          </cc:Agent>
        </dc:creator>
      </cc:Work>
    </rdf:RDF>
  </metadata>
  <defs
     id="defs1">
    <style
       type="text/css"
       id="style1">*{stroke-linejoin: round; stroke-linecap: butt}</style>
  </defs>
  <g
     id="g54">
    <g
       id="patch_1">
      <path
         d="M 0,676.8 H 676.8 V 0 H 0 Z"
         style="fill:none"
         id="path1" />
    </g>
    <g
       id="patch_2">
      <path
         d="M 1.44,675.36 H 675.36 V 1.44 H 1.44 Z"
         style="fill:none"
         id="path2" />
    </g>
    <g
       id="Line3DCollection_1">
      <path
         d="m 347.50703,63.62213 -50.89784,15.784679 -49.25661,27.388461 -45.15803,37.84347 -38.76056,46.53591 -30.38559,52.94702 -20.49613,56.70431 -9.65725,57.61695 1.51574,55.68875 12.41247,51.10782 22.47727,44.21583 31.24647,35.46447 38.36995,25.36743 43.61693,14.45569 46.86889,3.24161 48.10429,-7.80577"
         clip-path="url(#p7659e9360f)"
         style="fill:none;stroke:#cfd8e3;stroke-width:0.6;stroke-opacity:0.75"
         id="path3" />
      <path
         d="m 347.50703,63.62213 -42.98242,18.964544 -41.80997,30.622196 -38.51695,41.03937 -33.20313,49.56442 -26.12176,55.64176 -17.6663,58.87512 -8.33687,59.07329 1.30905,56.26885 10.71219,50.70663 19.36339,42.80549 26.84335,33.10261 32.84516,22.19236 37.17977,10.67047 39.76698,-0.90911 40.61751,-12.06137"
         clip-path="url(#p7659e9360f)"
         style="fill:none;stroke:#cfd8e3;stroke-width:0.6;stroke-opacity:0.75"
         id="path4" />
      <path
         d="m 347.50703,63.62213 -32.99406,21.544112 -32.22764,33.269298 -29.80664,43.67688 -25.78529,52.08045 -20.3453,57.89106 -13.7894,60.69106 -6.51568,60.28945 1.02344,56.74571 8.37005,50.3568 15.1073,41.61114 20.8955,31.12126 25.49241,19.55041 28.75751,7.54679 30.6427,-4.30509 31.1751,-15.5127"
         clip-path="url(#p7659e9360f)"
         style="fill:none;stroke:#cfd8e3;stroke-width:0.6;stroke-opacity:0.75"
         id="path5" />
      <path
         d="m 347.50703,63.62213 -21.40464,23.394444 -20.96981,35.181316 -19.44964,45.59391 -16.86849,53.91863 -13.3379,59.54039 -9.05417,62.02491 -4.28222,61.18159 0.6728,57.09129 5.49995,50.09187 9.91629,40.72573 13.69297,29.66295 16.66987,17.61798 18.7583,5.27651 19.93377,-6.75703 20.22292,-17.98786"
         clip-path="url(#p7659e9360f)"
         style="fill:none;stroke:#cfd8e3;stroke-width:0.6;stroke-opacity:0.75"
         id="path6" />
      <path
         d="m 347.50703,63.62213 -8.77196,24.422095 -8.60798,36.248015 -7.99659,46.66778 -6.94522,54.95179 -5.49808,60.46962 -3.73553,62.77725 -1.76767,61.6844 0.27777,57.28451 2.2701,49.93952 4.09049,40.22338 5.64314,28.83936 6.86183,16.53104 7.7108,4.00483 8.18161,-8.1246 8.28729,-19.36236"
         clip-path="url(#p7659e9360f)"
         style="fill:none;stroke:#cfd8e3;stroke-width:0.6;stroke-opacity:0.75"
         id="path7" />
      <path
         d="m 347.50703,63.62213 4.28931,24.574824 4.21018,36.406846 3.91206,46.82793 3.39843,55.10609 2.69079,60.60854 1.82843,62.88978 0.86529,61.75957 -0.13597,57.3133 -1.11122,49.91656 -2.00211,40.14807 -2.7617,28.71611 -3.35751,16.36867 -3.77213,3.81516 -4.00156,-8.32819 -4.05229,-19.56663"
         clip-path="url(#p7659e9360f)"
         style="fill:none;stroke:#cfd8e3;stroke-width:0.6;stroke-opacity:0.75"
         id="path8" />
      <path
         d="m 347.50703,63.62213 17.14094,23.844844 16.80491,35.648406 15.59746,46.06376 13.53595,54.37036 10.7084,59.94648 7.27198,62.35362 3.4401,61.40132 -0.54052,57.17586 -4.41817,50.02556 -7.96377,40.5065 -10.99237,29.30319 -13.37519,17.14281 -15.04172,4.72011 -15.97372,-7.3559 -16.19428,-18.59029"
         clip-path="url(#p7659e9360f)"
         style="fill:none;stroke:#cfd8e3;stroke-width:0.6;stroke-opacity:0.75"
         id="path9" />
      <path
         d="m 347.50703,63.62213 29.15621,22.269317 28.51224,34.017363 26.39965,44.4257 22.86073,52.79754 18.05266,58.53387 12.24302,61.21068 5.7871,60.63711 -0.90909,56.8808 -7.4336,50.25438 -13.41142,41.26702 -18.53789,30.55344 -22.59734,18.79678 -25.46685,6.65996 -27.10748,-5.26448 -27.54794,-16.48285"
         clip-path="url(#p7659e9360f)"
         style="fill:none;stroke:#cfd8e3;stroke-width:0.6;stroke-opacity:0.75"
         id="path10" />
      <path
         d="m 347.50703,63.62213 39.75422,19.928026 38.72988,31.608394 35.73196,42.01975 30.84288,50.49788 24.29129,56.47515 16.44154,59.54753 7.7626,59.52383 -1.21904,56.44629 -9.97338,50.57858 -18.01798,42.36476 -24.95706,32.36952 -30.50372,21.21261 -34.48506,9.50935 -36.83283,-2.17448 -37.5653,-13.35056"
         clip-path="url(#p7659e9360f)"
         style="fill:none;stroke:#cfd8e3;stroke-width:0.6;stroke-opacity:0.75"
         id="path11" />
      <path
         d="m 347.50703,63.62213 48.43056,16.938459 46.95605,28.558041 43.12443,38.99607 37.07283,47.62557 29.09992,53.91498 19.6475,57.4835 9.26259,58.14 -1.45402,55.89826 -11.90393,50.96599 -21.54239,43.71185 -29.91693,34.6176 -36.6898,24.22569 -41.64352,13.09054 -44.67324,1.74009 -45.77005,-9.35001"
         clip-path="url(#p7659e9360f)"
         style="fill:none;stroke:#cfd8e3;stroke-width:0.6;stroke-opacity:0.75"
         id="path12" />
      <path
         d="m 347.50703,63.62213 54.78251,13.448785 52.81696,25.033535 48.25102,35.53415 41.28549,44.36141 32.28141,51.02077 21.7336,55.15573 10.2288,56.57623 -1.60495,55.26799 -13.14993,51.38228 -23.84371,45.2098 -33.21258,37.14445 -40.8906,27.64361 -46.62515,17.19096 -50.27169,6.26581 -51.78118,-4.67888"
         clip-path="url(#p7659e9360f)"
         style="fill:none;stroke:#cfd8e3;stroke-width:0.6;stroke-opacity:0.75"
         id="path13" />
      <path
         d="m 347.50703,63.62213 58.52721,9.62934 56.08125,21.220191 50.9388,31.826899 43.36397,40.89506 33.7654,47.96515 22.66328,52.70448 10.64709,54.92562 -1.66978,54.58961 -13.69241,51.79588 -24.87936,46.76145 -34.76735,39.79439 -42.98516,31.26553 -49.25801,21.58208 -53.40471,11.1656 -55.33022,0.43535"
         clip-path="url(#p7659e9360f)"
         style="fill:none;stroke:#cfd8e3;stroke-width:0.6;stroke-opacity:0.75"
         id="path14" />
      <path
         d="m 347.50703,63.62213 59.51204,5.663344 56.66177,17.30901 51.16092,28.065996 43.32603,37.40951 33.5923,44.91131 22.47699,50.26115 10.5402,53.27596 -1.65219,53.89757 -13.55972,52.18153 -24.69072,48.28017 -34.61752,42.42323 -42.98438,34.89885 -49.50967,26.03675 -53.98478,16.19458 -56.27127,5.74767"
         clip-path="url(#p7659e9360f)"
         style="fill:none;stroke:#cfd8e3;stroke-width:0.6;stroke-opacity:0.75"
         id="path15" />
      <path
         d="m 347.50703,63.62213 57.71748,1.737511 54.60669,13.485635 49.01763,24.430114 41.29919,34.06973 31.88808,42.00294 21.27228,47.94011 9.95754,51.70447 -1.56011,53.22466 -12.81452,52.52194 -23.3819,49.69538 -32.88753,44.90736 -41.00784,38.37145 -47.47025,30.3432 -52.05267,21.11407 -54.58407,11.00806"
         clip-path="url(#p7659e9360f)"
         style="fill:none;stroke:#cfd8e3;stroke-width:0.6;stroke-opacity:0.75"
         id="path16" />
      <path
         d="m 347.50703,63.62213 53.25309,-1.966865 50.08308,9.921515 44.71083,21.076936 37.49114,31.015864 28.83627,39.35893 19.18267,45.83497 8.96466,50.27511 -1.40394,52.60051 -11.54038,52.80764 -21.09721,50.95432 -29.7621,47.14805 -37.25568,41.53865 -43.32902,34.31453 -47.76298,25.70306 -50.37043,15.97341"
         clip-path="url(#p7659e9360f)"
         style="fill:none;stroke:#cfd8e3;stroke-width:0.6;stroke-opacity:0.75"
         id="path17" />
      <path
         d="m 347.50703,63.62213 46.34771,-5.281911 43.35651,6.767551 38.51703,18.138757 32.16118,28.360823 24.65261,37.07224 16.35925,44.01805 7.63418,49.0381 -1.19511,52.05064 -9.83033,53.03572 -18.00111,52.02092 -25.46073,49.07148 -31.98121,44.28547 -37.34932,37.79405 -41.36528,29.76644 -43.84538,20.4183"
         clip-path="url(#p7659e9360f)"
         style="fill:none;stroke:#cfd8e3;stroke-width:0.6;stroke-opacity:0.75"
         id="path18" />
      <path
         d="m 347.50703,63.62213 37.3352,-8.06002 34.76959,4.150112 30.76289,15.721174 25.59646,26.190934 19.56528,35.21175 12.95697,42.54229 6.03928,48.03091 -0.94513,51.59605 -7.7784,53.20775 -14.26332,52.87291 -20.21754,50.62594 -25.46778,46.52542 -29.84532,40.65676 -33.18431,33.14037 -35.32387,24.14428"
         clip-path="url(#p7659e9360f)"
         style="fill:none;stroke:#cfd8e3;stroke-width:0.6;stroke-opacity:0.75"
         id="path19" />
      <path
         d="m 347.50703,63.62213 26.63695,-10.179384 24.7219,2.168962 21.80534,13.903838 18.09504,24.568591 13.80194,33.825703 9.12624,41.44429 4.24996,47.28002 -0.66495,51.25299 -5.47475,53.32778 -10.04952,53.4981 -14.26787,51.7776 -18.01185,48.19708 -21.16307,42.80849 -23.601,35.69519 -25.20436,26.98738"
         clip-path="url(#p7659e9360f)"
         style="fill:none;stroke:#cfd8e3;stroke-width:0.6;stroke-opacity:0.75"
         id="path20" />
      <path
         d="m 347.50703,63.62213 14.74234,-11.548239 13.65229,0.89654 12.01764,12.742329 9.95571,23.535684 7.58332,32.945456 5.00939,40.74761 2.33147,46.80289 -0.36473,51.03311 -3.00369,53.4003 -5.51729,53.89081 -7.84137,52.50604 -9.9127,49.25996 -11.66653,44.18362 -13.03552,37.33655 -13.95033,28.82397"
         clip-path="url(#p7659e9360f)"
         style="fill:none;stroke:#cfd8e3;stroke-width:0.6;stroke-opacity:0.75"
         id="path21" />
      <path
         d="m 347.50703,63.62213 2.18786,-12.107845 2.02427,0.37797 1.78044,12.270242 1.47393,23.116756 1.12208,32.588937 0.74092,40.46558 0.34476,46.60957 -0.0539,50.94361 -0.44418,53.42884 -0.81612,54.04889 -1.16038,52.80041 -1.46773,49.69071 -1.7286,44.74251 -1.93295,38.0056 -2.07037,29.57485"
         clip-path="url(#p7659e9360f)"
         style="fill:none;stroke:#cfd8e3;stroke-width:0.6;stroke-opacity:0.75"
         id="path22" />
      <path
         d="m 347.50703,63.62213 -10.46441,-11.834308 -9.6862,0.631332 -8.52286,12.500801 -7.05805,23.321288 -5.37461,32.762967 -3.54964,40.60323 -1.65188,46.70394 0.25841,50.98733 2.1282,53.41497 3.9097,53.9718 5.55781,52.65677 7.02795,49.48043 8.2743,44.46956 9.24893,37.67871 9.90235,29.20781"
         clip-path="url(#p7659e9360f)"
         style="fill:none;stroke:#cfd8e3;stroke-width:0.6;stroke-opacity:0.75"
         id="path23" />
      <path
         d="m 347.50703,63.62213 -22.64863,-10.739299 -21.00135,1.647815 -18.50858,13.427577 -15.34848,24.144687 -11.70045,33.46424 -7.73357,41.15815 -3.60057,47.08412 0.56331,51.16289 4.63842,53.35791 8.51665,53.65978 12.09674,52.077 15.27966,48.63342 17.96523,43.37235 20.05054,36.36741 21.43108,27.73858"
         clip-path="url(#p7659e9360f)"
         style="fill:none;stroke:#cfd8e3;stroke-width:0.6;stroke-opacity:0.75"
         id="path24" />
      <path
         d="m 347.50703,63.62213 -33.81704,-8.869703 -31.45211,3.391639 -27.79472,15.024139 -23.10322,25.567792 -17.64511,34.678873 -11.67848,42.12 -5.44152,47.74228 0.8515,51.46461 7.00896,53.25473 12.85748,53.11425 18.2362,51.06937 22.99088,47.16782 26.96965,41.48208 30.02113,34.11836 31.9964,25.23039"
         clip-path="url(#p7659e9360f)"
         style="fill:none;stroke:#cfd8e3;stroke-width:0.6;stroke-opacity:0.75"
         id="path25" />
      <path
         d="m 347.50703,63.62213 -43.46163,-6.306187 -40.58962,5.799798 -36.00474,17.242701 -30.02442,27.555018 -22.99071,36.38045 -15.24495,43.46906 -7.11105,48.66368 1.11308,51.88238 9.15749,53.10112 16.77756,52.33941 23.7491,49.6506 29.86272,45.11783 34.9197,38.85512 38.73045,31.01371 41.11702,21.79194"
         clip-path="url(#p7659e9360f)"
         style="fill:none;stroke:#cfd8e3;stroke-width:0.6;stroke-opacity:0.75"
         id="path26" />
      <path
         d="m 347.50703,63.62213 -51.13531,-3.160623 -47.99894,8.781908 -42.77476,20.01214 -35.81295,30.051425 -27.51157,38.52698 -18.28515,45.17355 -8.54076,49.82516 1.33736,52.40156 10.99579,52.89271 20.11378,51.34479 28.40159,47.84943 35.59689,42.53718 41.46187,35.57555 45.78227,27.171 48.36989,17.57387"
         clip-path="url(#p7659e9360f)"
         style="fill:none;stroke:#cfd8e3;stroke-width:0.6;stroke-opacity:0.75"
         id="path27" />
      <path
         d="m 347.50703,63.62213 -56.47197,0.427709 -53.31568,12.22061 -47.76575,23.235964 -40.17633,32.979267 -30.97858,41.05715 -20.644995,47.18653 -9.658269,51.19327 1.512991,53.00278 12.430753,52.6268 22.69706,50.1488 31.95794,45.71088 39.90394,39.5033 46.26911,31.75752 50.83046,22.74252 53.40932,12.76353"
         clip-path="url(#p7659e9360f)"
         style="fill:none;stroke:#cfd8e3;stroke-width:0.6;stroke-opacity:0.75"
         id="path28" />
      <path
         d="m 347.50703,63.62213 -59.2048,4.297209 -56.24532,15.97311 -50.68138,26.791051 -42.84332,36.23503 -33.16981,43.88655 -22.170814,49.44268 -10.390147,52.72232 1.628403,53.66205 13.368274,52.30453 24.359694,48.78236 34.19169,43.30074 42.51792,36.12105 49.05812,27.54687 53.59729,17.91308 55.9842,7.578"
         clip-path="url(#p7659e9360f)"
         style="fill:none;stroke:#cfd8e3;stroke-width:0.6;stroke-opacity:0.75"
         id="path29" />
      <path
         d="m 347.50703,63.62213 -59.18179,8.270356 -56.58447,19.87445 -51.29104,30.528134 -43.58541,39.68784 -33.888,46.90531 -22.721167,51.8558 -10.667515,54.35313 1.672695,54.35107 13.720347,51.93292 24.94843,47.29222 34.90347,40.70901 43.21741,32.52495 49.61133,23.12044 53.89325,12.89555 55.95246,2.25545"
         clip-path="url(#p7659e9360f)"
         style="fill:none;stroke:#cfd8e3;stroke-width:0.6;stroke-opacity:0.75"
         id="path30" />
      <path
         d="m 347.50703,63.62213 -56.37723,12.161336 -54.24187,23.742999 -49.45643,34.275045 -42.24407,43.18075 -32.98426,49.97793 -22.183781,54.31841 -10.434266,56.01288 1.636927,55.038 13.415646,51.52648 24.342804,45.74287 33.94498,38.05095 41.85186,28.8782 47.80164,18.68231 51.63644,7.92365 53.29161,-2.95518"
         clip-path="url(#p7659e9360f)"
         style="fill:none;stroke:#cfd8e3;stroke-width:0.6;stroke-opacity:0.75"
         id="path31" />
      <path
         d="m 347.50703,63.62213 -50.89784,15.784679 -49.25661,27.388461 -45.15803,37.84347 -38.76056,46.53591 -30.38559,52.94702 -20.49613,56.70431 -9.65725,57.61695 1.51574,55.68875 12.41247,51.10782 22.47727,44.21583 31.24647,35.46447 38.36995,25.36743 43.61693,14.45569 46.86889,3.24161 48.10429,-7.80577"
         clip-path="url(#p7659e9360f)"
         style="fill:none;stroke:#cfd8e3;stroke-width:0.6;stroke-opacity:0.75"
         id="path32" />
      <path
         d="m 347.50703,63.62213 v 0 0 0 0 0 0 0 0 0 0 0 0 0 0 0 0 0 0 0 0 0 0 0 0 0 0 0 0 0"
         clip-path="url(#p7659e9360f)"
         style="fill:none;stroke:#cfd8e3;stroke-width:0.6;stroke-opacity:0.75"
         id="path33" />
      <path
         d="m 296.60919,79.406809 7.91542,3.179865 9.98836,2.579568 11.58942,1.850332 12.63268,1.027651 13.06127,0.152729 12.85163,-0.72998 12.01527,-1.575527 10.59801,-2.341291 8.67634,-2.989567 6.35195,-3.489674 3.7447,-3.819445 0.98483,-3.965996 -1.79456,-3.925833 -4.46439,-3.704376 -6.90538,-3.315046 -9.01251,-2.778109 -10.69825,-2.119364 -11.89461,-1.368855 -12.55448,-0.559606 -12.65227,0.273537 -12.18422,1.095009 -11.16841,1.869596 -9.64459,2.563516 -7.67368,3.145564 -5.33666,3.588332 -2.73283,3.8695 0.023,3.973147 2.80456,3.89098 5.47939,3.623343"
         clip-path="url(#p7659e9360f)"
         style="fill:none;stroke:#cfd8e3;stroke-width:0.6;stroke-opacity:0.75"
         id="path34" />
      <path
         d="m 247.35258,106.79527 15.36206,6.4136 19.57069,5.22667 22.84725,3.76235 24.99451,2.09435 25.87943,0.31156 25.44636,-1.48842 23.7226,-3.20657 20.81565,-4.75026 16.90251,-6.03992 12.21286,-7.01418 7.00899,-7.632789 1.56535,-7.877177 -3.84964,-7.749208 -8.988,-7.268496 -13.63195,-6.46901 -17.59943,-5.395548 -20.74594,-4.100514 -22.96422,-2.641277 -24.1825,-1.078176 -24.36274,0.526899 -23.49937,2.111492 -21.61917,3.61342 -18.7821,4.971675 -15.083,6.127674 -10.6534,7.027034 -5.66247,7.622 -0.31614,7.874487 5.14716,7.759529 10.46465,7.268805"
         clip-path="url(#p7659e9360f)"
         style="fill:none;stroke:#cfd8e3;stroke-width:0.6;stroke-opacity:0.75"
         id="path35" />
      <path
         d="m 202.19455,144.63874 22.00314,9.6095 28.281,7.86418 33.20425,5.67938 36.44756,3.16822 37.78808,0.47171 37.13176,-2.25259 34.52479,-4.84463 30.14796,-7.15621 24.29498,-9.0636 17.33945,-10.4761 9.69677,-11.34004 1.78747,-11.63808 -5.99293,-11.38509 -13.2948,-10.621674 -19.82575,-9.407189 -25.35357,-7.813131 -29.70349,-5.91785 -32.75192,-3.802786 -34.4197,-1.550263 -34.66604,0.757458 -33.48509,3.038268 -30.90531,5.209982 -26.99212,7.190237 -21.85302,8.897113 -15.64439,10.250858 -8.5781,11.177087 -0.9258,11.61157 6.98177,11.50644 14.76305,10.83723"
         clip-path="url(#p7659e9360f)"
         style="fill:none;stroke:#cfd8e3;stroke-width:0.6;stroke-opacity:0.75"
         id="path36" />
      <path
         d="m 163.43399,191.17465 27.56057,12.63801 35.69884,10.38021 42.12105,7.51756 46.37083,4.20138 48.13173,0.62601 47.26928,-2.98832 43.84957,-6.41745 38.13011,-9.45587 30.52493,-11.93591 21.55211,-13.74026 11.77525,-14.80639 1.74953,-15.12363 -8.01977,-14.72487 -17.10285,-13.67554 -25.15571,-12.06223 -31.91829,-9.98302 -37.20491,-7.540193 -40.89125,-4.835693 -42.90148,-1.969191 -43.19802,0.96199 -41.77552,3.861667 -38.66005,6.633087 -33.91332,9.177463 -27.64155,11.39352 -20.00777,13.1787 -11.24509,14.43285 -1.66789,15.06438 8.32311,14.99935 18.24656,14.19239"
         clip-path="url(#p7659e9360f)"
         style="fill:none;stroke:#cfd8e3;stroke-width:0.6;stroke-opacity:0.75"
         id="path37" />
      <path
         d="m 133.0484,244.12167 31.8244,15.33275 41.4753,12.62951 49.12845,9.16689 54.21065,5.13061 56.3206,0.76493 55.28689,-3.65038 51.19383,-7.83006 44.36874,-11.51459 35.33356,-14.49608 24.7336,-16.63447 13.25924,-17.86201 1.57643,-18.17747 -9.72399,-17.63324 -20.15466,-16.31955 -29.33937,-14.34892 -37.00562,-11.84351 -42.96825,-8.92624 -47.10987,-5.71594 -49.36272,-2.32571 -49.69471,1.13602 -48.10136,4.56294 -44.60471,7.84772 -39.25892,10.87904 -32.16241,13.54005 -23.47478,15.70887 -13.43632,17.26225 -2.38608,18.08314 9.22685,18.07197 20.84523,17.16148"
         clip-path="url(#p7659e9360f)"
         style="fill:none;stroke:#cfd8e3;stroke-width:0.6;stroke-opacity:0.75"
         id="path38" />
      <path
         d="m 112.55227,300.82598 34.65423,17.50356 45.3522,14.44545 53.86368,10.50074 59.52929,5.88295 61.88456,0.87746 60.73044,-4.18654 56.16487,-8.973 48.56726,-13.17774 38.53952,-16.56011 26.8197,-18.96224 14.18892,-20.31326 1.39014,-20.6208 -10.9287,-19.95428 -22.24427,-18.42469 -32.16279,-16.16584 -40.4079,-13.31927 -46.79898,-10.02424 -51.22672,-6.41262 -53.63119,-2.60774 -53.98527,1.27367 -52.28529,5.11786 -48.54962,8.80957 -42.82539,12.2281 -35.20261,15.24454 -25.834625,17.72185 -14.962139,19.5184 -2.936433,20.49626 9.764236,20.53458 22.532881,19.54738"
         clip-path="url(#p7659e9360f)"
         style="fill:none;stroke:#cfd8e3;stroke-width:0.6;stroke-opacity:0.75"
         id="path39" />
      <path
         d="m 102.89502,358.44293 35.97461,18.9599 47.17339,15.66161 56.09714,11.39288 62.04384,6.38576 64.51752,0.95263 63.30525,-4.54479 58.51187,-9.73721 50.54276,-14.29102 40.03951,-17.94394 27.78591,-20.52601 14.60721,-21.96387 1.28325,-22.27046 -11.51136,-21.52577 -23.23715,-19.85405 -33.49327,-17.40285 -42.0028,-14.32646 -48.5883,-10.77513 -53.14521,-6.88975 -55.6179,-2.80106 -55.98191,1.36804 -54.23398,5.49804 -50.39057,9.46773 -44.49492,13.1495 -36.63232,16.40602 -26.952134,19.08996 -15.694017,21.04745 -3.213801,22.12707 9.997485,22.19433 23.309897,21.15145"
         clip-path="url(#p7659e9360f)"
         style="fill:none;stroke:#cfd8e3;stroke-width:0.6;stroke-opacity:0.75"
         id="path40" />
      <path
         d="m 104.41076,414.13168 35.76792,19.54 46.88778,16.13847 55.7465,11.73846 61.64881,6.57898 64.10378,0.98142 62.9007,-4.68223 58.1433,-10.03227 50.23281,-14.72553 39.80453,-18.49197 27.63498,-21.15628 14.54238,-22.64225 1.30084,-22.9625 -11.41928,-22.19868 -23.08098,-20.4782 -33.28444,-17.95272 -41.75282,-14.78105 -48.30812,-11.11819 -52.84499,-7.10963 -55.3071,-2.89056 -55.66957,1.41176 -53.92908,5.6736 -50.10238,9.76945 -44.23334,13.56727 -36.40804,16.9252 -26.776503,19.69118 -15.578605,21.70672 -3.169509,22.81609 9.961717,22.88126 23.18871,21.8022"
         clip-path="url(#p7659e9360f)"
         style="fill:none;stroke:#cfd8e3;stroke-width:0.6;stroke-opacity:0.75"
         id="path41" />
      <path
         d="m 116.82323,465.2395 34.06764,19.13881 44.54564,15.78864 52.8764,11.47353 58.41896,6.42663 60.72246,0.95846 59.59375,-4.57323 55.12787,-9.80345 47.69303,-14.40133 37.87398,-18.10456 26.38898,-20.73999 13.9999,-22.22865 1.43353,-22.57685 -10.67408,-21.85827 -21.80684,-20.1925 -31.57439,-17.72464 -39.70089,-14.60902 -46.00447,-10.99816 -50.37393,-7.03711 -52.74759,-2.86202 -53.09719,1.39789 -51.41886,5.61654 -47.73184,9.66627 -42.08481,13.41366 -34.56974,16.71679 -25.34154,19.42527 -14.641084,21.38445 -2.817436,22.44448 9.657016,22.47482 22.185534,21.38354"
         clip-path="url(#p7659e9360f)"
         style="fill:none;stroke:#cfd8e3;stroke-width:0.6;stroke-opacity:0.75"
         id="path42" />
      <path
         d="m 139.3005,509.45533 30.95376,17.72847 40.28955,14.59429 47.68539,10.58812 52.59316,5.92428 54.62986,0.88315 53.63209,-4.2148 49.68022,-9.04293 43.08647,-13.30359 34.34957,-16.75747 24.08766,-19.24204 12.96425,-20.677 1.62217,-21.05813 -9.36526,-20.44306 -19.52215,-18.93356 -28.47829,-16.65804 -35.9631,-13.75703 -41.79067,-10.37297 -45.8417,-6.6444 -48.04642,-2.70394 -48.37137,1.3208 -46.81191,5.30452 -43.39101,9.12074 -38.16473,12.63882 -31.23352,15.72217 -22.75826,18.22928 -12.97845,20.01801 -2.2287,20.95434 9.05139,20.92547 20.32,19.8565"
         clip-path="url(#p7659e9360f)"
         style="fill:none;stroke:#cfd8e3;stroke-width:0.6;stroke-opacity:0.75"
         id="path43" />
      <path
         d="m 170.54697,544.9198 26.55064,15.36661 34.3417,12.61294 40.48286,9.12981 44.54333,5.10069 46.22502,0.7599 45.40142,-3.62772 42.1347,-7.79268 36.6673,-11.48751 29.3897,-14.50939 20.79201,-16.71519 11.40948,-18.02706 1.772,-18.42929 -7.63527,-17.95893 -16.39672,-16.69287 -24.17692,-14.73461 -30.71991,-12.20257 -35.841,-9.22131 -39.4152,-5.91596 -41.36543,-2.40957 -41.65318,1.17716 -40.27298,4.72475 -37.25155,8.11311 -32.65183,11.22005 -26.58103,13.921 -19.20191,16.09073 -10.7447,17.60787 -1.51692,18.36261 8.0929,18.26741 17.62149,17.27002"
         clip-path="url(#p7659e9360f)"
         style="fill:none;stroke:#cfd8e3;stroke-width:0.6;stroke-opacity:0.75"
         id="path44" />
      <path
         d="m 208.91692,570.28723 21.02585,12.19154 26.98895,9.97099 31.66032,7.19738 34.73529,4.01375 36.00568,0.59753 35.38374,-2.85358 32.91255,-6.13871 28.76092,-9.07168 23.20362,-11.49631 16.59121,-13.29727 9.31492,-14.40514 1.77278,-14.79597 -5.65873,-14.48633 -12.64456,-13.52567 -18.90245,-11.98779 -24.20648,-9.96262 -28.38507,-7.54965 -31.31605,-4.85308 -32.92046,-1.97882 -33.1575,0.96688 -32.02127,3.87774 -29.54033,6.64751 -25.77999,9.17006 -20.84686,11.34035 -14.89486,13.05685 -8.13072,14.22562 -0.81743,14.76651 6.72735,14.62066 14.13958,13.75925"
         clip-path="url(#p7659e9360f)"
         style="fill:none;stroke:#cfd8e3;stroke-width:0.6;stroke-opacity:0.75"
         id="path45" />
      <path
         d="m 252.53385,584.74292 14.58869,8.40632 18.56669,6.84731 21.66111,4.9271 23.68779,2.74207 24.52275,0.40786 24.11415,-1.94863 22.48742,-4.19886 19.74271,-6.22229 16.04516,-7.91512 11.60958,-9.19685 6.68206,-10.01402 1.52112,-10.3413 -3.61931,-10.17988 -8.50333,-9.55434 -12.92275,-8.50827 -16.70248,-7.09991 -19.70282,-5.39792 -21.81951,-3.47795 -22.98253,-1.41993 -23.1546,0.69393 -22.33034,2.78053 -20.53591,4.75724 -17.82994,6.5431 -14.30469,8.06078 -10.08762,9.23882 -5.34171,10.01497 -0.26422,10.34008 4.91766,10.18253 9.95487,9.53263"
         clip-path="url(#p7659e9360f)"
         style="fill:none;stroke:#cfd8e3;stroke-width:0.6;stroke-opacity:0.75"
         id="path46" />
      <path
         d="m 299.40274,587.98453 7.48678,4.2556 9.44241,3.45133 10.95218,2.47516 11.93563,1.3745 12.33958,0.20427 12.14199,-0.97634 11.35366,-2.10744 10.01736,-3.13229 8.20475,-4.00055 6.01113,-4.67113 3.54904,-5.11423 0.94105,-5.31232 -1.6872,-5.26039 -4.21364,-4.96535 -6.52505,-4.44489 -8.52151,-3.72598 -10.11951,-2.8431 -11.25403,-1.83659 -11.87996,-0.75088 -11.97272,0.36704 -11.52873,1.46923 -10.56532,2.50819 -9.12062,3.43845 -7.25287,4.21807 -5.03943,4.81034 -2.57488,5.18553 0.0317,5.32255 2.66085,5.21063 5.18732,4.85059"
         clip-path="url(#p7659e9360f)"
         style="fill:none;stroke:#cfd8e3;stroke-width:0.6;stroke-opacity:0.75"
         id="path47" />
      <path
         d="m 347.50703,580.17876 v 0 0 0 0 0 0 0 0 0 0 0 0 0 0 0 0 0 0 0 0 0 0 0 0 0 0 0 0 0"
         clip-path="url(#p7659e9360f)"
         style="fill:none;stroke:#cfd8e3;stroke-width:0.6;stroke-opacity:0.75"
         id="path48" />
    </g>
    <g
       id="line2d_1">
      <path
         d="m 347.50703,63.62213 -14.10932,9.076878 -14.13439,11.859026 -14.00084,14.557183 -13.7051,17.133803 -13.24609,19.55119 -12.62543,21.77239 -11.84766,23.76216 -10.92029,25.48797 -9.85374,26.92089 -8.66126,28.03662 -7.35871,28.81614 -5.96411,29.24639 -4.49735,29.32069"
         clip-path="url(#p7659e9360f)"
         style="fill:none;stroke:#2980b9;stroke-width:3.2;stroke-linecap:square"
         id="path49" />
    </g>
    <g
       id="line2d_2">
      <path
         d="m 347.50703,63.62213 5.21323,3.684239 5.05759,4.142495 4.88143,4.56656 4.68636,4.954289 4.47416,5.303974 4.24676,5.614377 4.00618,5.884744 3.75456,6.114812 3.49405,6.3048 3.2268,6.45538 2.95493,6.56768 2.68049,6.6432 2.4054,6.68379 2.13149,6.69158 1.86042,6.66898 1.59369,6.61852 1.33261,6.54289 1.07833,6.44484 0.83178,6.32713 0.59375,6.19247 0.36484,6.04351 0.14546,5.88282 -0.0641,5.71275 -0.26368,5.53555 -0.45326,5.3533 -0.63296,5.16783 -0.80291,4.98083 -0.9634,4.79379 -1.1147,4.60799 -1.2572,4.42457 -1.39127,4.24446 -1.51732,4.06845 -1.63579,3.89721 -1.7471,3.73124 -1.85168,3.57095 -1.94998,3.41665 -2.04237,3.26853 -2.12928,3.12674 -2.2111,2.99133 -2.28816,2.86233 -2.36086,2.73968 -2.42947,2.62331 -2.49435,2.5131 -2.55574,2.40892 -2.61396,2.31063 -2.66923,2.21801 -2.72178,2.13093 -2.77185,2.04916 -2.81964,1.97252 -2.86532,1.9008 -2.90908,1.8338 -2.95108,1.77133 -2.99147,1.71318 -3.03039,1.65916 -3.06797,1.60909 -3.10434,1.56278 -3.1396,1.52006 -3.17386,1.48073 -3.20723,1.44465 -3.23979,1.41166 -3.27163,1.38161 -3.30285,1.35434 -3.33351,1.32972 -3.36369,1.30762 -3.39346,1.28791 -3.42291,1.27048 -3.45207,1.25521 -3.48103,1.242 -3.50986,1.23075 -3.53861,1.22136 -3.56733,1.21375 -3.5961,1.20786 -3.62499,1.20357 -3.65403,1.20084 -3.68331,1.19962 -3.7129,1.19983 -3.74283,1.20142 -3.77322,1.20436 -3.80409,1.2086 -3.83556,1.21411 -3.86769,1.22087 -3.90057,1.22885 -3.93429,1.23805 -3.96896,1.24845 -4.00468,1.26006 -4.04157,1.27291 -4.07976,1.28698 -4.11942,1.30233 -4.16067,1.31899 -4.20374,1.33702 -4.2488,1.35643 -4.29614,1.37723 -0.61507,0.19711"
         clip-path="url(#p7659e9360f)"
         style="fill:none;stroke:#e67e22;stroke-width:3.2;stroke-linecap:square"
         id="path50" />
    </g>
    <g
       id="Path3DCollection_1">
      <defs
         id="defs2">
        <path
           id="m42700f5be1"
           d="m 0,6.324555 c 1.677292,0 3.286112,-0.666395 4.472136,-1.852419 C 5.65816,3.286112 6.324555,1.677292 6.324555,0 6.324555,-1.677292 5.65816,-3.286112 4.472136,-4.472136 3.286112,-5.65816 1.677292,-6.324555 0,-6.324555 c -1.677292,0 -3.286112,0.666395 -4.472136,1.852419 C -5.65816,-3.286112 -6.324555,-1.677292 -6.324555,0 c 0,1.677292 0.666395,3.286112 1.852419,4.472136 C -3.286112,5.65816 -1.677292,6.324555 0,6.324555 Z"
           style="stroke:#ffffff;stroke-width:2" />
      </defs>
      <g
         clip-path="url(#p7659e9360f)"
         id="g2">
        <use
           xlink:href="#m42700f5be1"
           x="347.50702"
           y="63.622131"
           style="fill:#1a1a1a;stroke:#ffffff;stroke-width:2"
           id="use2" />
      </g>
    </g>
    <g
       id="Path3DCollection_2">
      <g
         clip-path="url(#p7659e9360f)"
         id="g3">
        <use
           xlink:href="#m42700f5be1"
           x="206.58273"
           y="349.16345"
           style="fill:#1a1a1a;stroke:#ffffff;stroke-width:2"
           id="use3" />
      </g>
    </g>
    <g
       id="text_1"
       transform="matrix(1.4414956,0,0,1.4414956,-156.46971,-5.9599026)">
      <!-- $q_s$ -->
      <g
         transform="matrix(0.2,0,0,-0.2,343.83306,31.278301)"
         id="g51">
        <defs
           id="defs50">
          <path
             id="Cmmi10-71"
             d="m 941,-1159 q 22,140 84,140 231,0 364,38 133,37 174,181 L 1838,288 Q 1472,-72 1106,-72 703,-72 473,233 244,538 244,953 q 0,410 211,850 211,441 572,733 361,292 779,292 194,0 350,-116 157,-115 238,-306 37,75 207,248 171,174 240,174 72,0 72,-81 L 2016,-825 q -16,-94 -19,-109 0,-85 422,-85 31,0 48,-25 17,-25 17,-56 -21,-84 -36,-112 -14,-29 -73,-29 H 1006 q -65,0 -65,82 z M 1119,97 q 225,0 439,170 214,171 373,405 l 360,1441 q -38,225 -165,387 -126,163 -335,163 -216,0 -402,-177 Q 1203,2309 1075,2069 950,1813 836,1366 722,919 722,672 722,450 817,273 913,97 1119,97 Z"
             transform="scale(0.015625)" />
          <path
             id="Cmmi10-73"
             d="M 556,391 Q 728,97 1247,97 q 225,0 428,76 203,77 336,230 133,153 133,372 0,166 -119,272 -119,106 -291,144 l -346,68 q -238,60 -391,222 -153,163 -153,394 0,284 154,503 155,219 408,334 253,116 525,116 291,0 520,-139 230,-139 230,-411 0,-147 -83,-260 -82,-112 -229,-112 -85,0 -146,55 -60,55 -60,139 0,75 42,145 42,71 112,113 71,42 146,42 -57,138 -212,200 -154,63 -332,63 -163,0 -326,-66 -162,-66 -261,-193 -98,-126 -98,-298 0,-115 81,-203 82,-87 201,-125 l 372,-75 q 178,-37 326,-133 149,-95 234,-241 86,-145 86,-332 0,-238 -133,-469 Q 2269,297 2075,159 1734,-72 1241,-72 900,-72 615,84 331,241 331,550 q 0,175 101,304 102,130 277,130 104,0 174,-63 70,-62 70,-165 Q 953,609 843,500 734,391 588,391 Z"
             transform="scale(0.015625)" />
        </defs>
        <use
           xlink:href="#Cmmi10-71"
           transform="translate(0,0.8125)"
           id="use50" />
        <use
           xlink:href="#Cmmi10-73"
           transform="matrix(0.7,0,0,0.7,44.580078,-16.19375)"
           id="use51" />
      </g>
    </g>
    <g
       id="text_2"
       transform="matrix(1.4305557,0,0,1.4305557,-33.470901,-134.25256)">
      <!-- $q_t$ -->
      <g
         transform="matrix(0.2,0,0,-0.2,149.11597,357.31306)"
         id="g53">
        <defs
           id="defs51">
          <path
             id="Cmmi10-74"
             d="m 397,519 q 0,94 19,178 L 878,2534 H 206 q -65,0 -65,85 25,140 84,140 h 709 l 257,1044 q 25,85 100,144 75,59 168,59 82,0 136,-49 55,-48 55,-129 0,-19 -2,-30 -1,-10 -4,-23 L 1388,2759 h 659 q 66,0 66,-84 -4,-16 -13,-54 -9,-37 -25,-62 -16,-25 -47,-25 H 1331 L 872,684 Q 825,503 825,372 825,97 1013,97 q 281,0 498,264 217,264 333,580 25,37 50,37 h 78 q 25,0 40,-17 16,-17 16,-39 0,-13 -6,-19 Q 1881,516 1612,222 1344,-72 997,-72 744,-72 570,93 397,259 397,519 Z"
             transform="scale(0.015625)" />
        </defs>
        <use
           xlink:href="#Cmmi10-71"
           transform="translate(0,0.8125)"
           id="use52" />
        <use
           xlink:href="#Cmmi10-74"
           transform="matrix(0.7,0,0,0.7,44.580078,-16.19375)"
           id="use53" />
      </g>
    </g>
  </g>
  <defs
     id="defs53">
    <clipPath
       id="p7659e9360f">
      <rect
         x="1.44"
         y="1.44"
         width="673.92"
         height="673.92"
         id="rect53" />
    </clipPath>
  </defs>
</svg>
